<?xml version="1.0" encoding="utf-8"?>
<!-- Generator: Adobe Illustrator 27.5.0, SVG Export Plug-In . SVG Version: 6.00 Build 0)  -->
<svg version="1.1" id="Layer_1" xmlns="http://www.w3.org/2000/svg" xmlns:xlink="http://www.w3.org/1999/xlink" x="0px" y="0px"
	 viewBox="0 0 4000 4000" style="enable-background:new 0 0 4000 4000;" xml:space="preserve">
<g>
	<g>
		<rect style="fill:#37DBFF;" width="4000" height="4000"/>
	</g>
	<g>
		<g>
			<g>
				<path style="fill:#37DBFF;stroke:#000072;stroke-width:0;stroke-miterlimit:10;" d="M2332.243,1200.305
					c0,20.573-13.327,21.73-29.767,21.73c-16.439,0-29.767-1.157-29.767-21.73s29.767-41.672,29.767-41.672
					S2332.243,1179.732,2332.243,1200.305z"/>
			</g>
			<g style="opacity:0.3;">
				<path style="fill:#6B184E;stroke:#000072;stroke-width:0;stroke-miterlimit:10;" d="M2332.243,1200.305
					c0,20.573-13.327,21.73-29.767,21.73c-16.439,0-29.767-1.157-29.767-21.73s29.767-41.672,29.767-41.672
					S2332.243,1179.732,2332.243,1200.305z"/>
			</g>
			<g>
				<path style="fill:#000072;" d="M2302.475,1236.562c-13.252,0-44.292,0-44.292-36.255c0-26.728,29.897-49.277,35.894-53.525
					l8.398-5.952l8.398,5.952c5.996,4.248,35.894,26.797,35.894,53.525C2346.767,1236.562,2315.727,1236.562,2302.475,1236.562z
					 M2302.475,1177.431c-7.847,7.334-15.239,16.685-15.239,22.876c0,4.39,0.859,5.679,0.869,5.689
					c1.226,0.991,6.079,1.514,14.37,1.514s13.14-0.522,14.419-1.563l0,0c-0.015,0,0.82-1.313,0.82-5.64
					C2317.715,1194.115,2310.327,1184.77,2302.475,1177.431z"/>
			</g>
			<g>
				<path style="fill:#FF1563;" d="M2568.61,751.832c0,203.103-119.152,406.801-266.134,406.801
					c-146.981,0-266.134-203.698-266.134-406.801s119.152-328.701,266.134-328.701
					C2449.458,423.131,2568.61,548.729,2568.61,751.832z"/>
			</g>
			<g style="opacity:0.3;">
				<path style="fill:#000072;" d="M2302.476,973.633c-123.855,0-227.947-144.645-257.634-311.689
					c-5.542,27.923-8.499,57.943-8.499,89.889c0,203.103,119.153,406.801,266.133,406.801
					c146.982,0,266.135-203.698,266.135-406.801c0-31.946-2.959-61.965-8.499-89.889
					C2530.422,828.988,2426.333,973.633,2302.476,973.633z"/>
			</g>
			<g style="opacity:0.6;">
				<path style="fill:#FFFFFF;" d="M2563.433,675.727c-1.311,9.562-2.853,19.071-4.652,28.504
					c-20.922-98.286-73.638-169.997-142.649-206.854c2.339,3.598,3.598,7.454,3.598,11.489c0,18.3-26.114,33.156-58.344,33.156
					c-32.231,0-58.345-14.856-58.345-33.156c0-17.838,24.829-32.411,55.954-33.105c-18.223-4.318-37.115-6.528-56.52-6.528
					c-122.087,0-224.949,87.62-256.306,234.999c-1.799-9.433-3.341-18.943-4.652-28.504C2065.883,512.901,2173.448,415,2302.475,415
					C2431.502,415,2539.067,512.901,2563.433,675.727z"/>
			</g>
			<g>
				<path style="fill:#000072;" d="M2302.475,1173.158c-74.736,0-145.928-47.593-200.469-134.009
					c-50.962-80.752-80.191-185.479-80.191-287.319c0-100.703,28.15-187.119,81.397-249.907
					c51.035-60.176,121.802-93.32,199.263-93.32s148.228,33.145,199.263,93.32c53.247,62.788,81.396,149.204,81.396,249.907
					c0,101.841-29.229,206.567-80.19,287.319C2448.403,1125.566,2377.212,1173.158,2302.475,1173.158z M2302.475,437.655
					c-148.145,0-251.606,129.194-251.606,314.175c0,205.303,119.922,392.275,251.606,392.275s251.606-186.973,251.606-392.275
					C2554.082,566.85,2450.62,437.655,2302.475,437.655z"/>
			</g>
		</g>
		<g>
			<path style="fill:#B5CFDD;" d="M1306.492,3130.772c13.55,49.175,86.565,93.249,160.964,53.112
				c47.981-25.885,64.615-63.009,48.659-108.631c-25.849-73.91-78.158-67.467-127.406-44.112S1293.679,3084.272,1306.492,3130.772z"
				/>
			<path style="fill:#000072;" d="M1407.822,3202.074c-15.581,0-30.996-3.12-45.684-9.389c-28.789-12.295-51.03-35.762-58.057-61.25
				c-13.511-49.043,34.658-79.361,83.56-102.554c35.278-16.729,63.203-20.366,85.381-11.104
				c19.922,8.325,35.215,27.383,45.449,56.65c16.318,46.655-0.913,85.264-49.829,111.66
				C1448.935,3196.718,1428.237,3202.074,1407.822,3202.074z M1308.906,3130.106c6.626,24.053,27.778,46.27,55.195,57.979
				c32.505,13.882,68.794,11.616,102.168-6.402c47.124-25.425,63.1-60.957,47.485-105.605
				c-9.746-27.871-24.102-45.933-42.661-53.687c-20.786-8.687-47.378-5.088-81.313,11.011
				C1342.759,3055.702,1296.372,3084.628,1308.906,3130.106z"/>
		</g>
		<g style="opacity:0.6;">
			<path style="fill:#FFFFFF;" d="M1357.433,3187.755c-13.419-11.733-22.974-26.163-27.068-41.043
				c-12.813-46.498,32.958-76.276,82.198-99.639c27.698-13.134,56.37-20.93,80.759-12.071
				c-28.023-29.594-67.208-21.596-104.613-3.86c-49.26,23.35-95.031,53.127-82.218,99.625
				C1312.735,3153.422,1331.619,3175.025,1357.433,3187.755z"/>
		</g>
		<g style="opacity:0.3;">
			<path style="fill:#000072;" d="M1467.445,3183.889c47.99-25.895,64.63-63.023,48.663-108.65
				c-17.494-50.061-47.151-63.26-79.775-59.284c20.173,37.245,11.474,74.175-25.667,108.391
				c-28.537,26.305-61.18,35.326-90.583,33.108C1347.571,3193.546,1407.062,3216.46,1467.445,3183.889z"/>
		</g>
		<g>
			<path style="fill:#000072;" d="M1407.842,3214.12c-17.178,0-34.194-3.447-50.425-10.381
				c-32.075-13.696-56.953-40.176-64.927-69.112c-18.018-65.386,57.676-101.284,89.995-116.611
				c38.55-18.271,69.683-21.982,95.171-11.333c23.208,9.698,40.757,31.152,52.168,63.774c18.267,52.231-1.435,97.051-55.469,126.211
				C1452.837,3208.275,1430.205,3214.12,1407.842,3214.12z M1320.498,3126.913c5.679,20.605,24.194,39.81,48.325,50.112
				c29.072,12.417,61.646,10.313,91.738-5.923c41.709-22.51,55.4-52.29,41.841-91.055c-8.574-24.512-20.664-40.176-35.942-46.563
				c-17.456-7.295-40.854-3.765-71.524,10.781C1334.673,3072.846,1312.407,3097.563,1320.498,3126.913z"/>
		</g>
		<g>
			<path style="fill:#B5CFDD;" d="M2382.773,2496.817c-1.562,16.667-5.519,38.235-10.022,59.441
				c-8.787,41.213-19.753,81.045-19.753,81.045c-74.618,212.345-247.494,221.495-247.494,221.495s2.07,12.31,2.469,37.545
				c0.581,37.001-2.469,101.779-20.951,196.15c-34.422,175.926-128.177,267.392-216.666,291.43
				c0.327,28.722-6.463,146.368-41.721,159.876c-18.809,7.226-38.853-8.751-38.853-8.751s-13.253,26.979-44.408,21.06
				c-23.783-4.539-30.32-31.59-30.32-31.59s-24.619,9.332-38.417,2.106c-14.488-7.589-18.664-26.107-23.275-41.467
				c-22.331-73.892,20.915-162.854,36.928-190.74c16.303-28.286,22.767-34.422,29.157-47.022
				c-22.186-5.083-35.476-10.929-35.476-10.929c-28.94,76.361-86.456,109.549-138.925,108.351
				c0.835,23.13-8.824,156.79-42.774,173.093c-23.166,11.147-47.64-12.309-47.64-12.309s-10.603,23.42-34.386,20.08
				c-19.426-2.723-28.286-27.124-28.286-27.124s-25.345,27.887-53.486-17.647c-47.095-76.107,8.86-207.879,28.359-239.615
				c17.538-28.576,52.251-81.3,52.251-81.3s-12.6-53.413-0.291-106.1c1.416-6.136,3.958-15.214,7.299-26.47
				c11.075-37.473,31.154-98.983,50.072-155.809c23.747-71.314,45.679-135.33,45.679-135.33l49.31-7.262l370.151-54.43
				c0,0,118.663-4.612,224.473-119.244c26.797-29.049,52.796-65.178,75.817-110.094c0,0,17.974-41.031,73.747-35.367
				C2350.274,2413.411,2388.691,2434.326,2382.773,2496.817z"/>
		</g>
		<g style="opacity:0.3;">
			<path style="fill:#000072;" d="M2372.751,2556.258c-8.787,41.213-19.753,81.045-19.753,81.045
				c-74.618,212.345-247.494,221.495-247.494,221.495s2.07,12.31,2.469,37.545l-10.639,4.357c0,0-2.505-18.446-6.391-40.305
				c-6.1-33.951,11.672-68.361,43.754-81.009C2263.823,2728.479,2311.132,2686.105,2372.751,2556.258z"/>
		</g>
		<g style="opacity:0.3;">
			<path style="fill:#000072;" d="M1462.95,3027.135c-12.309,52.687,0.386,136.847,0.386,136.847s-32.646,31.047-50.184,59.623
				c-19.499,31.736-91.507,157.763-42.104,232.393c9.249,13.971,26.171-0.984,26.171-0.984s10.823,29.517,28.336,30.107
				s25.974-20.071,25.974-20.071s14.168,19.678,39.355,21.646c16.521,1.291,28.139-17.316,28.139-17.316s8.461,7.871,2.386,22.86
				c-5.265,12.672-11.62,22.041-19.136,25.672c-23.166,11.147-47.64-12.309-47.64-12.309s-10.603,23.42-34.386,20.08
				c-19.426-2.723-28.286-27.124-28.286-27.124s-25.345,27.887-53.486-17.647c-47.095-76.107,8.86-207.879,28.359-239.615
				c17.538-28.576,52.251-81.3,52.251-81.3s-12.6-53.413-0.291-106.1c1.416-6.136,3.958-15.214,7.299-26.47
				c11.075-37.473,31.154-98.983,50.072-155.809c23.747-71.314,45.679-135.33,45.679-135.33l36.892-5.447
				c-8.388,24.655-23.021,67.792-38.417,114.015c-18.918,56.826-38.998,118.337-50.073,155.809
				C1466.908,3011.921,1464.366,3020.998,1462.95,3027.135z"/>
		</g>
		<g style="opacity:0.3;">
			<path style="fill:#000072;" d="M1817.341,3516.417c14.474,1.93,19.694-1.851,28.953,1.212
				c-5.52,13.283-12.464,23.076-21.153,26.424c-18.447,7.087-38.105-8.582-38.105-8.582s-12.998,26.459-43.553,20.655
				c-23.326-4.452-29.736-30.982-29.736-30.982s-24.145,9.152-37.677,2.065c-14.209-7.443-18.305-25.605-22.827-40.668
				c-21.901-72.47,20.512-159.719,36.217-187.069c15.99-27.741,22.328-33.76,28.596-46.117c-2.991-0.677-32.157-10.05-34.793-10.727
				c-5.667-6.605-7.179-13.398-6.686-20.06c0.858-11.584,12.869-18.932,23.717-14.779c29.015,11.11,110.378,25.323,211.333-2.467
				c8.645-2.38,14.197,9.01,7.051,14.426c-83.32,63.129-167.331,23.329-174.822,35.107c-3.112,4.894-6.746,10.829-11.092,18.37
				c-15.705,27.35-51.984,113.022-36.217,187.069c10.019,47.052,34.335,18.104,34.335,18.104s0.892,32.936,15.81,40.528
				c20.858,10.615,37.744-23.738,37.744-23.738S1802.867,3514.487,1817.341,3516.417z"/>
		</g>
		<g>
			
				<ellipse transform="matrix(0.9958 -0.0915 0.0915 0.9958 -267.7157 176.3419)" style="fill:#FFFFFF;" cx="1790.344" cy="3009.423" rx="205.61" ry="189.592"/>
		</g>
		<g>
			<path style="fill:#000072;" d="M1722.229,3235.192c16.157,2.108,33.508,3.743,50.403,4.728
				c17.004,0.891,34.067,1.364,51.072,0.342c4.224-0.38,8.518-0.5,12.732-0.995l12.688-1.509c4.16-0.79,8.342-1.554,12.563-2.263
				c4.236-0.675,8.259-1.981,12.437-2.944c16.492-4.36,32.578-10.676,47.761-19.7l0.044-0.026c0.852-0.507,1.956-0.226,2.463,0.627
				c0.425,0.715,0.293,1.609-0.264,2.177c-12.668,12.899-28.235,23.201-44.949,30.927c-16.746,7.769-34.644,12.911-52.749,16.078
				c-18.118,3.197-36.514,4.835-54.851,4.384c-4.587-0.04-9.17-0.249-13.74-0.637c-4.58-0.254-9.148-0.739-13.706-1.351
				c-9.163-1.165-18.113-2.7-27.449-5.459c-6.633-1.96-10.42-8.926-8.459-15.558c1.77-5.99,7.622-9.661,13.625-8.871
				L1722.229,3235.192z"/>
		</g>
		<g>
			<path style="fill:#000072;" d="M1460.71,3330.63c14.968-1,29.309-0.637,43.357-0.582c7.014,0.093,13.948-0.056,20.73,0.299
				c6.799,0.338,13.472,0.668,20.171,1.953l0.337,0.065c6.875,1.32,11.382,7.964,10.061,14.84
				c-1.016,5.302-5.227,9.194-10.239,10.095c-7.617,1.349-15.264,0.985-22.725,0.059c-7.478-0.909-14.753-2.896-21.877-5.054
				c-14.233-4.462-27.891-10.24-40.688-18.213c-0.879-0.547-1.15-1.703-0.601-2.582
				C1459.565,3330.981,1460.132,3330.671,1460.71,3330.63z"/>
		</g>
		<g>
			<path style="fill:#000072;" d="M1754.013,3571.469c-3.599,0-7.378-0.346-11.338-1.099c-18.252-3.467-29.819-16.299-36.221-28.301
				c-10.63,2.241-25.088,3.413-36.548-2.593c-18.594-9.722-24.468-29.746-29.189-45.835l-1.274-4.302
				c-25.557-84.653,27.388-183.247,38.257-202.148c8.599-14.937,14.682-24.082,19.17-30.781c-1.704-0.518-3.301-1.021-4.795-1.509
				c-31.714,70.938-86.445,99.936-133.018,103.955c-1.968,40.61-11.074,153.193-50.478,172.148
				c-18.281,8.784-37.236,3.096-50.835-5.015c-8.667,8.872-22.007,16.528-39.502,14.072c-15.098-2.124-25.342-12.056-31.689-21.069
				c-4.897,1.841-10.747,2.978-17.417,2.378c-15.996-1.479-30.474-12.524-43.027-32.827
				c-52.856-85.469,9.976-224.917,28.359-254.858c14.277-23.247,40.068-62.729,49.189-76.646
				c-3.047-16.265-9.565-61.255,0.986-106.46c12.241-52.412,99.731-308.13,103.452-318.994l2.866-8.374l429.766-63.13
				c7.251-0.317,179.512-10.146,287.827-221.216c2.734-5.791,25.698-49.795,88.252-43.442
				c55.903,5.664,85.972,44.077,80.435,102.754v0.005c-4.702,49.824-29.204,139.209-30.244,142.988l-0.303,0.962
				c-64.746,184.277-199.644,221.841-245.239,229.351c2.241,29.536,3.564,102.632-20.166,223.809
				c-30.186,154.277-110.723,265.235-216.572,299.502c-1.03,35.62-7.72,146.035-50.874,162.578
				c-15.254,5.864-30.107,1.704-40.244-3.111C1785.049,3563.144,1771.733,3571.464,1754.013,3571.469z M1725.337,3505.106
				l3.853,16.016c0.02,0.078,4.79,18.032,18.906,20.713c19.238,3.623,27.817-11.597,28.735-13.345l8.154-15.61l13.857,10.811
				c0.068,0.049,14.077,10.576,24.6,6.563c19.653-7.539,33.003-92.549,32.412-146.182l-0.127-11.235l10.845-2.944
				c100.112-27.177,177.202-131.919,206.211-280.181c30.054-153.481,18.501-227.788,18.384-228.521l-2.627-16.001l16.187-0.884
				c6.636-0.386,164.038-11.773,234.395-211.319c1.953-7.173,24.907-92.036,29.204-137.539v0.005
				c5.063-53.716-26.812-68.33-54.443-71.133c-43.945-4.389-58.438,25.611-59.033,26.89l-0.317,0.664
				c-113.687,221.782-296.016,236.348-311.831,237.192l-409.985,60.308c-15.508,45.479-89.087,261.997-99.78,307.808
				c-11.343,48.574,0.181,98.994,0.298,99.497l1.421,6.079l-3.428,5.229c-0.347,0.523-34.785,52.861-52.002,80.898
				c-21.348,34.766-69.78,157.48-28.408,224.385c7.29,11.787,14.746,18.599,20.996,19.175c5.088,0.479,9.356-3.604,9.395-3.643
				l16.162-17.773l8.228,22.568c1.567,4.15,8.062,16.484,16.689,17.696c12.856,1.86,19.038-11.543,19.092-11.68l8.457-18.745
				l14.839,14.233c0.122,0.117,17.817,16.221,31.318,9.721c20.757-9.985,35.952-120.161,34.541-159.502l-0.552-15.4l15.405,0.356
				c0.757,0.02,1.523,0.029,2.295,0.029c41.616,0,95.005-25.898,122.71-98.979l5.42-14.307l14.004,6.157
				c0.098,0.044,12.51,5.396,32.876,10.044l18.14,4.141l-8.418,16.592c-3.389,6.675-6.699,11.606-10.889,17.856
				c-4.546,6.772-10.2,15.2-18.643,29.868c-6.021,10.469-58.203,104.487-35.625,179.263l1.338,4.521
				c3.501,11.934,7.119,24.272,14.775,28.277c4.985,2.612,18.828,0.122,26.558-2.803L1725.337,3505.106z M2382.783,2496.815h0.049
				H2382.783z"/>
		</g>
		<g>
			<path style="fill:#000072;" d="M1784.175,3383.782c15.105-0.834,29.072-2.184,42.671-4.678
				c6.794-1.185,13.425-2.826,20.068-4.077c6.655-1.273,13.235-2.662,20.178-3.18l0.313-0.023c6.98-0.52,13.062,4.717,13.582,11.697
				c0.403,5.413-2.683,10.293-7.332,12.45c-7.158,3.302-14.893,4.958-22.681,5.868c-7.803,0.933-15.75,0.61-23.557-0.204
				c-15.598-1.744-30.977-6.168-44.15-14.398c-0.876-0.548-1.143-1.702-0.596-2.577
				C1783.005,3384.127,1783.591,3383.818,1784.175,3383.782z"/>
		</g>
		<g>
			<path style="fill:#B5CFDD;" d="M1596.137,2662.829l-24.981,66.195l-56.79,150.508l-49.274,130.573
				c-10.494,5.447-23.82,11.438-38.998,17.32c-60.131,23.275-149.673,45.207-211.401,27.923
				c-33.551-9.405-29.956-36.274-29.956-36.274s-28.25,1.489-43.972-21.387c-8.388-12.237,11.547-39.542,11.547-39.542
				s-23.057-8.823-24.764-23.275c-2.251-19.281,35.839-34.35,63.979-45.388c52.433-20.552,116.158-43.21,179.266-71.314
				C1457.358,2779.568,1542.761,2730.694,1596.137,2662.829z"/>
		</g>
		<g style="opacity:0.3;">
			<path style="fill:#000072;" d="M1465.092,3010.105L1465.092,3010.105c-10.494,5.447-23.82,11.438-38.998,17.32
				c-60.131,23.275-149.673,45.207-211.401,27.923c-33.551-9.405-29.956-36.274-29.956-36.274s-28.25,1.489-43.972-21.387
				c-8.388-12.237,11.547-39.542,11.547-39.542s-23.057-8.823-24.764-23.275c-1.525-13.072,15.505-24.219,35.403-33.479
				c-24.886,47.908,38.476,37.479,38.476,37.479s-43.598,16.74-38.568,30.697c7.871,21.842,54.341,8.476,54.341,8.476
				s-14.927,36.926,18.86,45.441c53.993,13.608,157.681-16.321,209.663-33.593
				C1458.111,2985.774,1469.703,2997.892,1465.092,3010.105z"/>
		</g>
		<g>
			<path style="fill:#000072;" d="M1265.044,3075.995c-19.165,0-37.568-1.992-54.258-6.66c-25.356-7.1-35.938-23.213-39.37-36.9
				c-12.392-2.246-30.317-8.628-42.602-26.509c-8.813-12.813-3.369-29.863,3.052-42.29c-8.428-5.796-17.285-14.707-18.73-27.06
				c-3.584-30.547,38.926-47.212,73.081-60.601c14.575-5.713,30.02-11.587,46.079-17.695
				c121.812-46.328,273.403-103.985,352.412-204.439c4.966-6.304,14.102-7.397,20.396-2.436c6.304,4.961,7.397,14.092,2.437,20.395
				c-83.989,106.782-239.756,166.026-364.917,213.628c-15.962,6.074-31.318,11.914-45.806,17.588
				c-35.376,13.872-53.828,24.063-54.834,30.288c0.357,2.568,8.618,8.623,15.508,11.26l17.734,6.782l-11.191,15.342
				c-5.85,8.071-11.026,19.355-10.825,23.432c10.899,15.039,30.591,14.521,30.772,14.453l17.451-0.903l-2.3,17.324
				c-0.264,3.184,0.254,14.98,19.482,20.366c68.56,19.155,183.613-15.01,239.79-44.146c7.109-3.706,15.884-0.918,19.58,6.201
				c3.696,7.119,0.918,15.889-6.201,19.58C1432.676,3043.285,1342.636,3075.995,1265.044,3075.995z"/>
		</g>
		<g>
			<path style="fill:#32B1D1;stroke:#000072;stroke-width:0;stroke-miterlimit:10;" d="M1641.73,2952.077"/>
		</g>
		<g>
			<path style="fill:#B5CFDD;" d="M1698.448,2067.033c0,0,58.682-329.452,326.399-273.253c30.764,6.458,182.324,52.9,228.52,182.703
				c6.595,18.53,2.505,44.726-25.609,40.56c0,0,43.559,74.188,21.811,145.036c-21.748,70.848-59.516,31.872-59.516,31.872
				s-8.048,103.695-86.867,85.818L1698.448,2067.033z"/>
			<path style="fill:#000072;" d="M2120.639,2284.34c-5.737,0-11.738-0.713-18.008-2.134l-0.61-0.225l-406.357-213.584l0.322-1.802
				c0.298-1.67,31.055-167.93,143.555-243.877c52.778-35.64,115.303-46.182,185.82-31.387
				c1.782,0.376,178.677,39.077,230.361,184.311c3.696,10.381,5.059,26.084-3.247,36.187c-3.345,4.067-9.365,8.476-20.298,8.13
				c8.716,16.802,38.657,81.372,19.78,142.851c-7.871,25.645-18.838,40.327-32.593,43.633c-11.675,2.822-22.031-3.364-27.354-7.48
				c-1.846,13.965-9.39,54.272-36.431,74.204C2145.488,2280.604,2133.784,2284.34,2120.639,2284.34z M2104.052,2277.402
				c19.033,4.238,35.361,1.465,48.564-8.257c30.503-22.485,34.902-74.863,34.946-75.391l0.425-5.508l3.857,3.96
				c0.127,0.127,12.583,12.696,26.377,9.37c11.904-2.881,21.646-16.416,28.96-40.23c21.177-68.999-21.147-142.309-21.582-143.042
				l-2.642-4.502l5.166,0.767c9.243,1.362,16.138-0.615,20.488-5.913c6.533-7.944,5.913-21.465,2.402-31.333
				c-42.124-118.359-177.915-170.859-226.68-181.099c-69.146-14.507-130.381-4.209-181.997,30.64
				c-104.512,70.552-137.451,220.708-141.084,238.823L2104.052,2277.402z"/>
		</g>
		<g style="opacity:0.6;">
			<path style="fill:#FFFFFF;" d="M2253.364,1976.49c1.274,3.529,2.133,7.358,2.498,11.193
				c-55.81-109.655-188.486-150.12-217.063-156.122c-220.242-46.204-298.985,168.535-320.014,246.158l-20.322-10.685
				c0,0,58.669-329.444,326.383-273.266C2055.613,1800.246,2207.16,1846.677,2253.364,1976.49z"/>
		</g>
		<g>
			<path style="fill:#000072;" d="M2120.781,2296.386c-6.65,0-13.594-0.815-20.811-2.451l-1.855-0.42l-415.83-218.564l1.865-10.464
				c1.25-7.021,31.987-172.969,148.662-251.733c55.576-37.52,121.201-48.687,195.02-33.189
				c1.85,0.386,185.298,40.532,239.219,192.051c4.746,13.335,6.206,33.872-5.288,47.852c-2.349,2.856-6.235,6.563-12.046,9.199
				c12.344,28.11,30.459,83.208,13.74,137.676c-9.209,29.995-23.101,47.422-41.284,51.792c-7.856,1.895-15.132,1.05-21.362-0.967
				c-4.761,20.034-15.293,48.877-38.096,65.679C2150.483,2291.865,2136.435,2296.386,2120.781,2296.386z M2108.183,2265.99
				c14.951,3.022,27.163,0.908,37.236-6.479c26.006-19.096,30.117-66.235,30.156-66.714l2.593-31.953l22.314,22.998
				c1.978,1.958,9.204,7.5,14.976,6.031c7.046-1.763,14.604-13.745,20.225-32.056c19.648-64.004-20.049-132.734-20.449-133.423
				l-15.366-26.172l30.02,4.453c3.291,0.488,7.583,0.601,9.438-1.655c2.524-3.071,3.35-11.265,0.356-19.668
				c-47.749-134.17-216.133-173.003-217.817-173.359c-65.806-13.809-123.896-4.131-172.69,28.765
				c-90.698,61.147-125.674,185.952-134.219,222.549L2108.183,2265.99z"/>
		</g>
		<g>
			<path style="fill:#B5CFDD;" d="M1447.447,2159.701c0,0-258.686-212.282-425.658,4.4
				c-19.187,24.899-104.209,158.685-54.974,287.366c7.028,18.369,27.159,35.624,45.822,14.188c0,0,15.099,84.695,77.668,124.414
				c62.569,39.719,65.949-14.449,65.949-14.449s73.499,73.588,121.793,8.782L1447.447,2159.701z"/>
			<path style="fill:#000072;" d="M1229.458,2613.593c-31.836,0-61.421-23.892-71.435-32.886
				c-1.367,6.582-5.229,18.003-15.928,23.457c-12.588,6.426-30.474,2.397-53.13-11.987
				c-54.297-34.463-73.496-103.003-77.793-121.436c-7.978,7.305-15.537,7.925-20.713,7.012
				c-12.881-2.285-22.041-15.107-25.977-25.391c-55.098-143.989,54.214-288.345,55.322-289.79
				c43.984-57.075,98.369-89.673,161.641-96.89c134.844-15.391,266.275,91.011,267.588,92.085l1.411,1.162l-0.674,1.699
				l-169.521,425.005l-0.195,0.264c-12.651,16.972-28.169,26.24-46.128,27.534
				C1232.436,2613.544,1230.942,2613.593,1229.458,2613.593z M1154.121,2569.95l3.901,3.902
				c0.376,0.376,37.642,37.236,75.562,34.594c16.343-1.186,30.561-9.692,42.261-25.273l168.589-422.671
				c-14.526-11.396-137.236-104.185-262.446-89.849c-61.865,7.061-115.098,39.014-158.218,94.976
				c-30.415,39.468-99.517,167.603-54.619,284.946c3.745,9.785,12.051,20.459,22.183,22.256c6.748,1.187,13.276-1.777,19.419-8.818
				l3.428-3.94l0.918,5.142c0.151,0.835,15.659,84.092,76.543,122.744c21.035,13.345,37.227,17.31,48.159,11.763
				c12.656-6.426,13.95-24.082,13.96-24.263L1154.121,2569.95z"/>
		</g>
		<g style="opacity:0.6;">
			<path style="fill:#FFFFFF;" d="M1023.924,2503.195c0.622-0.609,1.225-1.27,1.844-1.965c0,0,0.994,5.618,3.56,14.625
				C1027.308,2511.492,1025.509,2507.252,1023.924,2503.195z"/>
			<path style="fill:#000072;" d="M1027.055,2516.903c-1.978-4.277-3.814-8.584-5.459-12.798l-0.601-1.533l1.177-1.157
				c0.581-0.571,1.143-1.191,1.724-1.846l3.428-3.857l0.903,5.083c0.01,0.054,1.011,5.62,3.501,14.375L1027.055,2516.903z"/>
		</g>
		<g style="opacity:0.6;">
			<path style="fill:#FFFFFF;" d="M1447.458,2159.703l-7.991,20.028c-65.001-44.723-266.232-159.544-404.552,19.944
				c-17.905,23.221-93.041,141.138-63.168,261.273c-2.027-2.959-3.69-6.198-4.93-9.478
				c-49.235-128.694,35.784-262.462,54.961-287.379C1188.762,1947.427,1447.458,2159.703,1447.458,2159.703z"/>
		</g>
		<g>
			<path style="fill:#FF7878;" d="M1431.834,2272.481c69.138,79.609,6.335,193.557-92.579,230.075
				c-98.914,36.518-225.846,9.905-265.621-97.831c-36.518-98.914,11.574-216.328,112.978-245.222
				C1275.981,2134.038,1376.565,2208.842,1431.834,2272.481z"/>
			<path style="fill:#000072;" d="M1252.71,2520.478c-23.872,0-47.373-3.438-69.199-10.356
				c-53.774-17.051-93.633-54.17-112.222-104.531c-19.263-52.173-15.947-110.396,9.101-159.731
				c22.461-44.248,59.942-75.767,105.537-88.76c88.149-25.132,188.589,45.571,247.798,113.74l0,0
				c26.777,30.84,35.903,69.771,25.684,109.614c-13.838,53.955-60.659,102.803-119.292,124.448
				C1312.075,2515.258,1282.114,2520.478,1252.71,2520.478z M1224.013,2156.894c-12.398,0-24.673,1.582-36.719,5.01
				c-44.238,12.607-80.625,43.228-102.446,86.216c-24.419,48.101-27.651,104.868-8.872,155.742
				c23.13,62.646,72.065,89.771,109.048,101.494c47.666,15.107,103.565,13.237,153.364-5.142
				c57.134-21.094,102.739-68.589,116.177-121.001c6.933-27.031,8.286-67.207-24.619-105.093
				C1379.868,2216.459,1300.019,2156.894,1224.013,2156.894z"/>
		</g>
		<g>
			<path style="fill:#FF7878;" d="M1400.711,2466.323c-17.768,15.289-38.658,27.817-61.446,36.23
				c-98.912,36.517-225.859,9.906-265.63-97.817c-36.517-98.912,11.566-216.329,112.965-245.24
				c20.393-5.807,41.369-6.398,62.235-3.096c70.689,11.182,140.332,66.977,183.014,116.086
				C1485.031,2333.747,1460.1,2415.35,1400.711,2466.323z"/>
			<path style="fill:#000072;" d="M1252.71,2520.473c-23.867,0-47.368-3.438-69.194-10.356
				c-53.779-17.046-93.633-54.16-112.222-104.517c-19.263-52.173-15.952-110.396,9.092-159.736
				c22.461-44.243,59.937-75.771,105.532-88.77c19.736-5.625,41.045-6.679,63.31-3.164
				c70.864,11.211,141.777,67.749,184.507,116.919c21.616,24.897,31.802,54.854,29.468,86.631
				c-2.915,39.683-25.098,80.044-60.864,110.742c-18.262,15.713-39.775,28.394-62.212,36.675
				C1312.08,2515.253,1282.119,2520.473,1252.71,2520.473z M1224.004,2156.898c-12.734,0-25.019,1.67-36.719,5
				c-44.238,12.617-80.62,43.237-102.441,86.23c-24.414,48.101-27.642,104.868-8.862,155.742
				c23.125,62.637,72.065,89.761,109.048,101.479c47.686,15.122,103.579,13.232,153.369-5.142
				c21.88-8.081,42.866-20.449,60.684-35.781l0.005-0.005c34.761-29.834,56.314-68.945,59.131-107.31
				c2.236-30.42-7.534-59.116-28.257-82.983c-42.153-48.511-111.978-104.263-181.514-115.259
				C1240.141,2157.558,1231.982,2156.898,1224.004,2156.898z"/>
		</g>
		<g style="opacity:0.3;">
			<path style="fill:#000072;" d="M1400.711,2466.323c-79.151,2.743-157.798-32.446-187.572-113.091
				c-25.334-68.621-9.951-146.116,35.696-196.832c70.689,11.182,140.332,66.977,183.014,116.086
				C1485.031,2333.747,1460.1,2415.35,1400.711,2466.323z"/>
		</g>
		<g>
			<path style="fill:#000072;" d="M1252.695,2532.49c-25.102,0-49.834-3.623-72.817-10.908
				c-57.393-18.193-99.966-57.91-119.868-111.826c-20.42-55.307-16.899-117.026,9.658-169.341
				c23.994-47.266,64.111-80.962,112.964-94.883c93.574-26.646,198.647,46.587,260.171,117.427l0,0
				c29.448,33.906,39.482,76.694,28.252,120.483c-14.785,57.666-64.546,109.771-126.772,132.74
				C1314.922,2527.025,1283.53,2532.49,1252.695,2532.49z M1224.306,2168.876c-11.401,0-22.681,1.45-33.716,4.594
				c-40.986,11.68-74.731,40.122-95.024,80.093c-22.905,45.127-25.932,98.388-8.31,146.133
				c21.445,58.081,66.978,83.281,101.401,94.194c45.181,14.331,98.237,12.515,145.566-4.956
				c53.54-19.771,96.206-64.009,108.696-112.71c6.216-24.243,7.437-60.269-22.051-94.223
				C1372.607,2226.435,1296.089,2168.876,1224.306,2168.876z"/>
		</g>
		<g>
			<path style="fill:#FF7878;" d="M1771.67,2147.017c-0.821,105.437,120.96,151.238,219.874,114.719
				c98.914-36.518,178.101-139.229,138.326-246.964c-36.518-98.914-149.37-156.909-245.222-112.978
				C1800.171,1940.512,1772.326,2062.73,1771.67,2147.017z"/>
			<path style="fill:#000072;" d="M1921.665,2276.654c-37.085,0-72.983-10.112-100.791-29.648
				c-33.657-23.648-52.021-59.165-51.704-100.01c0.703-90.288,31.094-209.277,114.439-247.471
				c43.096-19.751,92.07-20.151,137.895-1.118c51.099,21.226,91.45,63.325,110.708,115.503
				c18.594,50.356,12.422,104.468-17.373,152.373c-26.992,43.394-71.616,79.038-122.432,97.798
				C1969.551,2272.523,1945.366,2276.654,1921.665,2276.654z M1952.9,1889.418c-23.12,0-45.908,4.888-67.212,14.648
				c-81.211,37.222-110.83,154.145-111.519,242.969c-0.391,50.181,26.748,79.839,49.58,95.879
				c44.277,31.108,109.805,37.573,166.929,16.479c49.79-18.384,93.496-53.281,119.912-95.752
				c20.493-32.939,40.059-85.356,16.934-148.003c-18.779-50.874-58.12-91.919-107.935-112.612
				C1997.744,1893.954,1975.166,1889.418,1952.9,1889.418z"/>
		</g>
		<g>
			<path style="fill:#FF7878;" d="M2129.883,2014.779c39.771,107.724-39.429,210.442-138.341,246.96
				c-26.514,9.789-54.654,13.668-81.644,12.043c-73.746-4.361-138.815-49.583-138.229-126.753
				c0.489-61.223,15.285-142.443,55.728-197.134c15.231-20.658,34.12-37.499,57.237-48.106
				C1980.493,1857.874,2093.366,1915.868,2129.883,2014.779z"/>
			<path style="fill:#000072;" d="M1921.762,2276.64c-4.014,0-8.018-0.122-12.017-0.361
				c-68.145-4.028-141.206-46.201-140.576-129.268c0.234-29.072,4.971-129.307,56.216-198.599
				c16.401-22.246,35.981-38.696,58.203-48.892c43.125-19.746,92.1-20.142,137.925-1.099
				c51.099,21.23,91.455,63.325,110.713,115.493l0,0c18.589,50.352,12.417,104.463-17.388,152.368
				c-26.997,43.394-71.621,79.043-122.432,97.798C1970,2272.357,1945.801,2276.64,1921.762,2276.64z M1952.876,1889.423
				c-23.115,0-45.898,4.883-67.202,14.639c-21.44,9.839-40.371,25.762-56.265,47.319c-50.352,68.081-55.01,166.982-55.239,195.669
				c-0.605,79.805,70.01,120.342,135.874,124.238c27.256,1.636,55.127-2.48,80.635-11.895
				c49.785-18.379,93.496-53.281,119.917-95.752c20.493-32.939,40.068-85.356,16.943-147.998l0,0
				c-18.779-50.864-58.125-91.909-107.94-112.607C1997.744,1893.959,1975.156,1889.423,1952.876,1889.423z"/>
		</g>
		<g>
			<path style="fill:#FF7878;" d="M2129.883,2014.779c39.771,107.724-39.429,210.442-138.341,246.96
				c-22.12,8.167-45.351,12.219-68.116,12.391c-4.539,0.041-9.048-0.075-13.528-0.348c-73.746-4.361-138.815-49.583-138.229-126.753
				c0.489-61.223,15.285-142.443,55.728-197.134c3.015-4.091,6.173-8.03,9.51-11.802c13.367-15.27,29.179-27.793,47.727-36.304
				C1980.493,1857.874,2093.366,1915.868,2129.883,2014.779z"/>
			<path style="fill:#000072;" d="M1921.704,2276.64c-4.033,0-8.052-0.122-11.958-0.361
				c-68.145-4.028-141.206-46.201-140.576-129.268c0.234-29.072,4.971-129.307,56.216-198.599c3.12-4.233,6.362-8.262,9.648-11.973
				c14.204-16.23,30.547-28.657,48.555-36.919c43.125-19.746,92.1-20.142,137.925-1.099c51.099,21.23,91.455,63.325,110.713,115.493
				l0,0c18.589,50.352,12.417,104.463-17.388,152.368c-26.997,43.394-71.621,79.043-122.432,97.798
				c-22.061,8.15-45.264,12.373-68.96,12.549C1922.866,2276.635,1922.285,2276.64,1921.704,2276.64z M1952.876,1889.423
				c-23.115,0-45.898,4.883-67.202,14.639c-17.363,7.969-33.14,19.976-46.89,35.679c-3.193,3.608-6.343,7.52-9.375,11.641
				c-50.352,68.081-55.01,166.982-55.239,195.669c-0.605,79.805,70.01,120.342,135.874,124.238c4.36,0.269,8.799,0.366,13.364,0.342
				c23.12-0.176,45.752-4.292,67.27-12.236c49.785-18.379,93.496-53.281,119.917-95.752c20.493-32.939,40.068-85.356,16.943-147.998
				l0,0c-18.779-50.864-58.125-91.909-107.94-112.607C1997.744,1893.959,1975.156,1889.423,1952.876,1889.423z"/>
		</g>
		<g style="opacity:0.3;">
			<path style="fill:#000072;" d="M1994.413,2064.794c30.077,81.467-7.904,160.064-70.987,209.336
				c-4.539,0.041-9.048-0.075-13.528-0.348c-73.746-4.361-138.815-49.583-138.229-126.753
				c0.489-61.223,15.285-142.443,55.728-197.134c3.015-4.091,6.173-8.03,9.51-11.802
				C1905.518,1946.1,1968.775,1995.35,1994.413,2064.794z"/>
		</g>
		<g>
			<path style="fill:#000072;" d="M1921.767,2288.637c-39.585,0-77.993-10.85-107.808-31.792
				c-36.987-25.986-57.163-65.029-56.812-109.941c0.728-93.818,32.969-217.764,121.45-258.31
				c46.182-21.167,98.574-21.621,147.52-1.289c54.18,22.51,96.958,67.134,117.378,122.441
				c19.902,53.916,13.354,111.763-18.447,162.891c-28.379,45.615-75.205,83.062-128.477,102.725
				C1972.431,2284.277,1946.865,2288.637,1921.767,2288.637z M1952.905,1901.454c-21.416,0-42.51,4.517-62.207,13.545
				c-76.074,34.868-103.843,146.836-104.507,232.129l0,0c-0.347,44.971,23.989,71.563,44.468,85.947
				c41.143,28.902,102.314,34.8,155.854,15.039c47.329-17.476,88.833-50.581,113.867-90.825
				c19.072-30.659,37.305-79.4,15.864-137.485c-17.627-47.744-54.536-86.26-101.27-105.674
				C1994.624,1905.678,1973.613,1901.454,1952.905,1901.454z M1771.67,2147.016h0.049H1771.67z"/>
		</g>
		<g>
			<path style="fill:#000072;" d="M1229.57,2625.615c-26.299,0-50.801-13.97-66.401-25.357c-3.433,5.576-8.408,10.947-15.615,14.619
				c-16.67,8.491-38.545,4.272-65.034-12.549c-48.101-30.532-70.137-84.185-79.019-113.569c-6.133,1.768-11.499,1.475-15.142,0.835
				c-17.822-3.164-30.054-19.717-35.107-32.935c-57.481-150.215,55.879-299.927,57.031-301.426
				c46.045-59.751,103.174-93.901,169.8-101.499c139.844-15.908,271.06,90.21,276.577,94.741l8.213,6.739l-174.043,436.343
				l-1.138,1.523c-14.829,19.902-33.301,30.786-54.898,32.349C1233.047,2625.551,1231.303,2625.615,1229.57,2625.615z
				 M1144.316,2543.266l22.217,22.09c0.317,0.317,34.033,33.525,66.245,31.094c12.451-0.923,23.106-7.231,32.515-19.272
				l164.58-412.622c-30.264-22.256-137.974-94.355-246.631-81.943c-58.467,6.704-108.916,37.104-149.951,90.357
				c-1.05,1.362-103.809,140.288-52.91,273.31c3.184,8.325,9.136,14.019,13.052,14.712c2.891,0.513,6.069-2.373,8.252-4.873
				l19.927-22.89l5.322,29.878c0.142,0.767,14.897,78.989,71.152,114.702c16.182,10.269,29.722,14.458,36.206,11.226
				c5.361-2.671,7.241-11.548,7.476-14.448L1144.316,2543.266z"/>
		</g>
		<g style="opacity:0.3;">
			<path style="fill:#000072;" d="M2165.78,2555.35c-25.853,95.751-109.004,174.11-222.984,232.57
				c-36.42,18.7-75.962,35.33-117.792,49.854c-94.662,32.898-186.855,50.036-268.155,46.006
				c-14.524-0.726-28.686-2.106-42.484-4.249c-13.108-1.961-25.853-4.611-38.199-7.916c-39.724-10.603-75.308-28.141-105.374-53.449
				c86.565-38.598,171.968-87.473,225.344-155.337l-24.981,66.195l370.151-54.43
				C1941.307,2674.594,2059.971,2669.983,2165.78,2555.35z"/>
		</g>
		<g>
			<path style="fill:#B5CFDD;" d="M1570.823,2055.81c239.606-88.46,517.274,76.341,587.353,266.157
				c62.344,168.867-36.809,304.221-206.967,395.696c-36.034,19.372-75.253,36.775-116.796,52.113
				c-94.021,34.712-185.869,53.641-267.229,51.181c-124.342-3.76-224.187-57.48-269.853-181.173
				C1227.253,2449.967,1331.218,2144.27,1570.823,2055.81z"/>
		</g>
		<g style="opacity:0.3;">
			<path style="fill:#000072;" d="M2158.164,2321.959c75.548,204.631-86.052,360.046-323.748,447.802
				c-237.722,87.765-461.544,74.644-537.092-129.987c-2.333-6.32-4.471-12.742-6.396-19.3
				c82.402,185.636,299.235,195.089,529.07,110.236c229.809-84.844,388.48-232.93,330.485-427.576
				C2153.282,2309.369,2155.831,2315.639,2158.164,2321.959z"/>
		</g>
		<g style="opacity:0.6;">
			<path style="fill:#FFFFFF;" d="M2158.164,2321.959c1.859,5.035,3.561,10.041,5.132,15.008
				c-78.177-183.839-348.081-338.464-581.77-252.189c-233.714,86.285-338.39,379.202-278.351,569.738
				c-2.034-4.796-3.992-9.707-5.852-14.743c-70.075-189.808,33.88-495.509,273.503-583.976
				C1810.425,1967.341,2088.089,2132.152,2158.164,2321.959z"/>
		</g>
		<g>
			<path style="fill:#FFFFFF;" d="M1917.904,2592.636c21.607,58.525-25.847,110.545-98.213,137.262s-142.239,18.012-163.846-40.512
				c-21.607-58.525,28.844-102.429,101.21-129.146S1896.297,2534.111,1917.904,2592.636z"/>
		</g>
		<g>
			<path style="fill:#000072;" d="M1567.039,2825.796c-48.953,5.641-100.657-1.345-146.87-23.591
				c-46.372-21.595-85.964-58.754-110.994-103.11c-25.962-43.832-40.381-93.499-45.449-143.273
				c-2.551-24.922-2.981-49.973-1.458-74.849c1.631-24.869,5.081-49.556,10.115-73.89c4.951-24.359,11.807-48.295,20.144-71.681
				c8.362-23.369,17.971-46.339,29.526-68.35c11.472-22.039,24.265-43.42,38.657-63.744c14.521-20.228,30.452-39.465,47.754-57.458
				c34.878-35.658,75.522-66.196,120.786-87.914c5.698-2.611,11.235-5.588,17.073-7.885l17.444-7.051
				c5.854-2.24,11.865-4.06,17.793-6.104c2.983-0.961,5.925-2.063,8.945-2.904l9.08-2.448c12.043-3.556,24.377-5.837,36.65-8.376
				c12.395-1.815,24.766-3.892,37.263-4.708c49.915-4.496,100.261,0.398,148.66,11.915c24.175,5.963,47.903,13.567,71.033,22.666
				c23.074,9.246,45.449,20.128,67.102,32.277c21.699,12.089,42.39,25.938,62.188,40.944c19.736,15.079,38.706,31.267,56.089,49.133
				c34.788,35.576,64.995,76.414,85.571,122.67c10.149,23.223,17.798,47.319,22.517,72.352c4.702,24.982,5.959,50.795,3.459,76.29
				c-2.483,25.499-8.787,50.624-18.398,74.269c-9.753,23.596-22.644,45.684-37.625,65.975
				c-14.978,20.319-32.056,38.837-50.325,55.842c-9.084,8.56-18.511,16.718-28.145,24.589c-9.629,7.874-19.436,15.514-29.558,22.69
				c-20.225,14.384-41.646,26.93-63.901,37.565c-22.307,10.513-45.459,19.229-69.907,24.047c-2.688,0.53-5.295-1.219-5.825-3.907
				c-0.381-1.937,0.42-3.832,1.904-4.938l0.027-0.021c19.805-14.716,40.181-27.192,60.332-39.855
				c20.193-12.544,40.161-25.161,59.683-38.353c9.753-6.608,19.358-13.406,28.691-20.546c9.265-7.219,18.25-14.766,26.921-22.623
				c17.202-15.862,32.983-33.126,46.729-51.736c13.735-18.606,25.374-38.608,34.114-59.733
				c8.594-21.171,14.158-43.438,16.372-66.077c4.68-45.322-5.146-91.783-23.638-134.094c-18.799-42.301-46.941-80.542-79.69-114.019
				c-16.355-16.824-34.297-32.12-52.974-46.392c-18.735-14.2-38.342-27.339-58.911-38.789
				c-81.702-46.405-176.79-71.189-270.015-63.201c-11.658,0.746-23.159,2.71-34.697,4.374c-11.401,2.385-22.878,4.475-34.05,7.794
				l-8.438,2.263c-2.805,0.778-5.53,1.813-8.301,2.705c-5.5,1.904-11.084,3.577-16.519,5.658l-16.191,6.547
				c-5.425,2.119-10.557,4.912-15.852,7.328c-42.031,20.154-79.912,48.591-112.632,82.02
				c-16.223,16.882-31.208,34.972-44.905,54.038c-13.572,19.164-25.659,39.379-36.521,60.232
				c-10.945,20.826-20.042,42.606-27.971,64.753c-7.903,22.163-14.407,44.852-19.084,67.902
				c-4.761,23.026-8.015,46.348-9.556,69.753c-1.436,23.408-1.016,46.88,1.357,70.067c2.407,23.175,6.804,46.099,13.757,68.115
				c7.017,21.946,16.636,43.248,28.55,62.723c11.924,19.514,26.201,37.457,42.937,52.72c16.719,15.269,35.488,28.181,55.684,38.767
				l7.637,3.876l3.823,1.946l3.967,1.648c5.33,2.112,10.537,4.551,15.901,6.652l16.345,5.769c5.496,1.844,11.111,3.387,16.685,5.114
				c22.458,6.494,45.649,11.104,69.426,15.951l0.125,0.026c2.646,0.54,4.355,3.123,3.816,5.77
				C1570.837,2824.038,1569.082,2825.558,1567.039,2825.796z"/>
		</g>
		<g>
			<path style="fill:none;stroke:#000072;stroke-width:29.0486;stroke-linecap:round;stroke-miterlimit:10;" d="M1834.413,2769.776"
				/>
		</g>
		<g>
			<path style="fill:#B5CFDD;" d="M1434.439,2175.205c-8.013-62.132,78.861-257.734,152.347-211.715
				c10.816,6.773,31.447,30.79,12.028,58.499c-17.712,25.274-31.584,53.137-27.732,47.245
				c18.615-28.477,103.321-112.47,139.637-68.813c17.298,20.794-3.306,57.63-28.376,73.104"/>
			<path style="fill:#000072;" d="M1431.958,2175.521c-6.113-47.417,43.184-174.468,100.547-211.221
				c19.785-12.661,38.486-13.652,55.61-2.93c6.142,3.848,17.358,14.409,20.439,29.609c2.241,11.045-0.352,21.963-7.695,32.441
				c-5.781,8.252-11.108,16.719-15.527,24.165c23.56-25.771,63.833-60.078,96.055-61.929c12.925-0.728,23.374,3.691,31.255,13.164
				c5.918,7.109,8.125,16.479,6.392,27.09c-2.983,18.271-17.529,38.725-35.376,49.741l-2.627-4.258
				c16.704-10.308,30.303-29.346,33.071-46.289c1.514-9.267-0.274-17.036-5.308-23.091c-6.807-8.184-15.918-12.08-27.119-11.367
				c-38.545,2.212-93.526,57.046-108.501,79.951c-0.562,0.854-1.328,2.007-2.881,1.924l-1.46-0.093l-0.649-1.333
				c-1.577-3.286,19.487-37.568,28.584-50.547c6.523-9.312,8.843-18.926,6.885-28.579c-2.749-13.564-13.101-23.174-18.193-26.362
				c-15.342-9.614-32.246-8.628-50.254,2.9c-56.069,35.923-104.263,160.054-98.286,206.377L1431.958,2175.521z"/>
		</g>
		<g style="opacity:0.6;">
			<path style="fill:#FFFFFF;" d="M1438.849,2173.39l-4.413,1.805c-8.014-62.113,78.869-257.729,152.351-211.7
				c8.991,5.614,24.74,23.125,18.69,44.772c-4.329-8.327-10.879-14.521-15.556-17.465
				C1525.688,1950.612,1451.264,2094.89,1438.849,2173.39z"/>
		</g>
		<g style="opacity:0.6;">
			<path style="fill:#FFFFFF;" d="M1715.582,2030.061c-0.528-0.798-1.098-1.551-1.729-2.311
				c-36.321-43.662-105.479,23.303-135.445,48.621c-5.368,4.535-3.631-7.541,14.095-32.828c5.528-7.879,17.247-9.705,17.414-16.685
				c33.059-29.225,77.167-54.852,100.793-26.44C1717.522,2008.588,1718.468,2019.216,1715.582,2030.061z"/>
		</g>
		<g>
			<path style="fill:#000072;" d="M1434.419,2189.731c-7.192,0-13.442-5.342-14.385-12.671
				c-6.616-51.314,44.263-183.34,105.986-222.881c29.922-19.17,53.745-12.222,68.477-2.998c9.648,6.04,22.202,19.463,25.84,37.407
				c0.703,3.452,1.035,6.914,1.006,10.366c19.17-13.721,40.098-24.194,59.355-25.303c16.689-0.933,30.879,5.093,41.187,17.48
				c8.213,9.868,11.328,22.568,9.018,36.719c-3.564,21.797-20.01,45.122-40.932,58.032c-6.826,4.219-15.781,2.09-19.985-4.731
				c-4.214-6.826-2.095-15.772,4.731-19.986c13.511-8.34,25.342-24.678,27.52-37.998c1.396-8.555-1.675-12.246-2.686-13.462
				c-4.409-5.303-9.692-7.461-17.188-7.056c-34.014,1.958-85.557,53.774-99.126,74.531c-4.487,6.87-10.527,7.554-13.735,7.344
				l-8.477-0.561l-3.687-7.671c-3.638-7.588-0.806-12.593,8.579-29.18c4.678-8.267,12.114-20.781,21.001-33.462
				c4.624-6.597,6.245-12.91,4.951-19.292c-1.787-8.804-8.794-16.055-12.793-18.56c-7.153-4.487-18.828-9.063-37.388,2.837
				c-51.235,32.827-98.447,151.289-92.847,194.712c1.025,7.954-4.59,15.234-12.549,16.26
				C1435.664,2189.691,1435.039,2189.731,1434.419,2189.731z"/>
		</g>
		<g>
			<path style="fill:#000072;" d="M1693.945,2404.88c5.823-4.28,12.813-6.861,20.021-7.391
				c45.634-3.361,103.042,45.156,129.118,88.882c24.036,40.305,45.676,108.595-54,145.394
				c-99.676,36.8-127.604-29.169-135.524-75.423C1644.966,2506.161,1657.075,2431.979,1693.945,2404.88z"/>
		</g>
		<g style="opacity:0.7;">
			<path style="fill:#FFFFFF;" d="M1688.527,2490.02c-18.612,13.762-10.372,59.985,2.874,80.158
				c13.719,20.894,25.843,30.768,37.077,23.073c15.688-10.747,10.644-30.951-1.078-50.975
				C1719.109,2528.115,1711.496,2473.036,1688.527,2490.02z"/>
			<path style="fill:#000072;" d="M1720.62,2598.354c-1.016,0-2.046-0.102-3.081-0.308c-8.486-1.67-17.456-10.088-28.228-26.494
				c-12.896-19.639-22.72-68.418-2.271-83.545l0,0c4.673-3.452,9.214-4.492,13.477-3.125c11.064,3.545,17.148,22.31,22.519,38.867
				c2.295,7.07,4.463,13.75,6.519,17.261c18.833,32.173,10.576,47.285,0.332,54.302
				C1726.938,2597.338,1723.833,2598.354,1720.62,2598.354z M1690.01,2492.031c-16.821,12.446-9.732,56.655,3.481,76.777
				c9.849,15,18.032,22.959,25.015,24.331c2.983,0.591,5.786-0.054,8.56-1.948c12.349-8.462,11.733-24.492-1.826-47.651
				c-2.329-3.985-4.473-10.596-6.958-18.247c-4.502-13.877-10.669-32.886-19.292-35.649
				C1696.323,2488.788,1693.359,2489.56,1690.01,2492.031L1690.01,2492.031z"/>
		</g>
		<g>
			<g>
				<path style="fill:#FFC200;" d="M2051.855,1514.74c2.305,20.444-10.808,23.087-27.144,24.929
					c-16.336,1.842-29.709,2.186-32.014-18.257c-2.306-20.444,24.909-44.745,24.909-44.745S2049.549,1494.296,2051.855,1514.74z"/>
			</g>
			<g>
				<path style="fill:#000072;" d="M2013.491,1552.978c-5.068,0-9.98-0.615-14.639-2.451c-10.728-4.238-16.978-13.56-18.579-27.715
					c-2.944-26.113,25.728-52.544,29.009-55.474l6.606-5.899l7.759,4.282c3.848,2.124,37.686,21.509,40.63,47.617
					c1.597,14.155-2.422,24.634-11.943,31.152c-7.49,5.132-16.675,6.523-26.221,7.598
					C2021.831,1552.572,2017.607,1552.978,2013.491,1552.978z M2019.404,1492.616c-7.612,8.579-15.112,20.059-14.287,27.393
					c0.479,4.243,1.46,6.689,2.915,7.261c3.354,1.318,11.104,0.449,15.278-0.024c4.17-0.469,11.929-1.343,14.897-3.379
					c1.294-0.884,1.704-3.481,1.226-7.725C2038.608,1508.808,2028.745,1499.286,2019.404,1492.616z"/>
			</g>
			<g style="opacity:0.3;">
				<path style="fill:#000072;" d="M2051.855,1514.74c2.305,20.444-10.808,23.087-27.144,24.929
					c-16.336,1.842-29.709,2.186-32.014-18.257c-2.306-20.444,24.909-44.745,24.909-44.745S2049.549,1494.296,2051.855,1514.74z"/>
			</g>
			<g>
				<path style="fill:#FFC200;" d="M2236.475,1042.603c22.761,201.824-72.813,417.592-218.869,434.063
					c-146.056,16.472-287.285-172.59-310.046-374.414c-22.761-201.824,81.566-339.984,227.621-356.455
					C2081.237,729.325,2213.714,840.779,2236.475,1042.603z"/>
			</g>
			<g style="opacity:0.3;">
				<path style="fill:#000072;" d="M2236.475,1042.603c-5.332-47.292-16.755-89.551-32.9-126.437
					c13.142,194.719-80.583,394.668-220.969,410.5c-112.058,12.637-221.272-95.719-276.323-237.994
					c0.386,4.506,0.764,9.008,1.279,13.579c22.761,201.825,163.989,390.886,310.044,374.415
					C2163.662,1460.194,2259.236,1244.426,2236.475,1042.603z"/>
			</g>
			<g style="opacity:0.6;">
				<path style="fill:#FFFFFF;" d="M2222.802,967.557c-0.231,9.648-0.698,19.271-1.428,28.846
					c-31.805-95.323-92.225-160.674-164.932-189.565c2.727,3.314,4.411,7.003,4.863,11.013
					c2.051,18.185-22.234,35.874-54.261,39.486c-32.028,3.612-59.642-8.224-61.693-26.409c-1.999-17.725,21.04-34.989,51.892-39.167
					c-18.592-2.249-37.612-2.328-56.895-0.153c-121.318,13.682-213.713,112.277-228.356,262.241
					c-2.845-9.172-5.443-18.449-7.817-27.803c5.965-164.531,101.882-273.869,230.096-288.329
					C2062.483,723.258,2180.342,808.488,2222.802,967.557z"/>
			</g>
			<g>
				<path style="fill:#000072;" d="M1999.502,1492.206c-67.891,0.005-136.255-39.097-194.487-111.807
					c-59.692-74.531-100.474-175.317-111.89-276.523c-11.284-100.068,7.002-189.092,52.881-257.451
					c43.97-65.518,110.576-106.382,187.549-115.064c76.968-8.672,151.011,16.323,208.462,70.4
					c59.951,56.426,97.607,139.146,108.892,239.214l0,0c11.411,101.201-5.894,208.54-47.485,294.492
					c-44.512,91.982-109.922,147.256-184.189,155.63C2012.671,1491.835,2006.084,1492.206,1999.502,1492.206z M1964.355,758.661
					c-9.053,0-18.237,0.518-27.549,1.567c-147.207,16.607-235.542,156.577-214.814,340.396
					c10.815,95.894,49.341,191.25,105.693,261.616c57.422,71.699,124.229,107.227,188.296,99.99
					c63.999-7.217,121.279-56.729,161.294-139.414c39.268-81.152,55.581-182.69,44.766-278.589l0,0
					C2202.622,872.035,2098.462,758.661,1964.355,758.661z"/>
			</g>
		</g>
		<g>
			<g>
				<path style="fill:#FF57BC;" d="M2631.292,1521.604c-2.105,20.466-15.48,20.253-31.833,18.571
					c-16.353-1.682-29.492-4.196-27.387-24.661c2.105-20.466,33.873-38.408,33.873-38.408S2633.396,1501.139,2631.292,1521.604z"/>
			</g>
			<g style="opacity:0.3;">
				<path style="fill:#000072;" d="M2631.292,1521.604c-2.105,20.466-15.48,20.253-31.833,18.571
					c-16.353-1.682-29.492-4.196-27.387-24.661c2.105-20.466,33.873-38.408,33.873-38.408S2633.396,1501.139,2631.292,1521.604z"/>
			</g>
			<g>
				<path style="fill:#000072;" d="M2610.073,1555.385c-4.048,0-8.12-0.352-12.104-0.762c-9.424-0.967-19.292-2.358-27.217-7.671
					c-7.046-4.726-15.049-14.272-13.13-32.92c2.734-26.592,34.78-45.962,41.177-49.575l8.965-5.064l7.744,6.782
					c5.527,4.839,32.969,30.322,30.234,56.914l0,0c-1.919,18.648-11.694,26.372-19.561,29.566
					C2621.079,1554.726,2615.6,1555.385,2610.073,1555.385z M2604.018,1495.805c-8.555,6.494-16.865,15.039-17.5,21.196
					c-0.449,4.365,0.278,5.737,0.283,5.752c1.118,1.108,5.894,2.124,14.141,2.974c8.257,0.85,13.13,0.82,14.507-0.078l0,0
					c-0.015,0,0.952-1.221,1.396-5.527l0,0C2617.48,1513.964,2611.084,1503.91,2604.018,1495.805z M2631.294,1521.606h0.049
					H2631.294z"/>
			</g>
			<g>
				<path style="fill:#FF57BC;" d="M2912.296,1099.664c-20.777,202.038-160.142,392.478-306.352,377.442
					c-146.21-15.036-243.9-229.854-223.123-431.892s152.152-314.788,298.363-299.752
					C2827.394,760.498,2933.073,897.626,2912.296,1099.664z"/>
			</g>
			<g style="opacity:0.3;">
				<path style="fill:#000072;" d="M2898.53,935.019c-0.359,4.854-0.728,9.713-1.235,14.644
					c-20.776,202.039-160.142,392.478-306.35,377.443c-101.047-10.391-178.906-116.208-210.515-247.277
					c-7.078,191.25,87.634,383.098,225.515,397.277c146.208,15.035,285.574-175.404,306.35-377.443
					C2918.613,1038.229,2913.181,982.843,2898.53,935.019z"/>
			</g>
			<g style="opacity:0.6;">
				<path style="fill:#FFFFFF;" d="M2914.932,1023.428c-2.282,9.377-4.789,18.68-7.544,27.879
					c-10.758-99.911-55.861-176.638-120.74-220.362c1.958,3.819,2.817,7.783,2.404,11.797c-1.872,18.204-29.369,30.311-61.43,27.014
					c-32.062-3.297-56.519-20.747-54.647-38.951c1.825-17.744,28.014-29.701,59.047-27.207
					c-17.686-6.16-36.252-10.291-55.555-12.276c-121.447-12.489-232.732,64.149-279.001,207.546
					c-0.825-9.567-1.386-19.185-1.712-28.831c40.895-159.479,157.911-245.863,286.26-232.664
					C2810.364,750.573,2907.35,858.964,2914.932,1023.428z"/>
			</g>
			<g>
				<path style="fill:#000072;" d="M2622.461,1492.475c-6.006,0-12.007-0.308-18.003-0.923
					c-74.346-7.646-140.298-62.271-185.708-153.813c-42.432-85.542-60.796-192.7-50.376-294.009
					c10.303-100.176,47.139-183.262,106.533-240.273c56.919-54.639,130.684-80.376,207.759-72.441
					c77.056,7.925,144.063,48.13,188.672,113.208c46.548,67.91,65.708,156.748,55.405,256.924
					c-10.42,101.309-50.205,202.495-109.16,277.607C2759.58,1452.655,2690.923,1492.475,2622.461,1492.475z M2655.508,758.661
					c-59.57,0-115.82,22.881-160.483,65.752c-54.365,52.183-88.164,129.048-97.754,222.285
					c-9.873,96.001,7.441,197.373,47.505,278.13c40.82,82.29,98.584,131.24,162.651,137.827
					c64.067,6.631,130.591-29.575,187.305-101.836c55.659-70.913,93.242-166.646,103.115-262.642
					c9.59-93.237-7.861-175.376-50.469-237.529c-39.707-57.925-99.258-93.701-167.681-100.737
					C2671.592,759.076,2663.515,758.661,2655.508,758.661z"/>
			</g>
		</g>
		<g>
			<g>
				<path style="fill:#00C3FF;" d="M2332.243,1679.545c0,20.573-13.327,21.73-29.767,21.73c-16.439,0-29.767-1.157-29.767-21.73
					c0-20.574,29.767-41.672,29.767-41.672S2332.243,1658.971,2332.243,1679.545z"/>
			</g>
			<g style="opacity:0.3;">
				<path style="fill:#000072;" d="M2332.243,1679.545c0,20.573-13.327,21.73-29.767,21.73c-16.439,0-29.767-1.157-29.767-21.73
					c0-20.574,29.767-41.672,29.767-41.672S2332.243,1658.971,2332.243,1679.545z"/>
			</g>
			<g>
				<path style="fill:#000072;" d="M2302.475,1715.8c-13.252,0-44.292,0-44.292-36.255c0-26.729,29.902-49.272,35.894-53.521
					l8.398-5.952l8.398,5.952c5.991,4.248,35.894,26.792,35.894,53.521C2346.767,1715.8,2315.727,1715.8,2302.475,1715.8z
					 M2302.475,1656.674c-7.847,7.329-15.239,16.68-15.239,22.871c0,4.39,0.859,5.679,0.869,5.688
					c1.226,0.991,6.079,1.514,14.37,1.514s13.14-0.522,14.419-1.563l0,0c-0.015,0,0.82-1.313,0.82-5.64
					C2317.715,1673.354,2310.327,1664.008,2302.475,1656.674z"/>
			</g>
			<g>
				<path style="fill:#00C3FF;" d="M2568.61,1231.072c0,203.103-119.152,406.801-266.134,406.801
					c-146.981,0-266.134-203.698-266.134-406.801s119.152-328.701,266.134-328.701
					C2449.458,902.37,2568.61,1027.968,2568.61,1231.072z"/>
			</g>
			<g style="opacity:0.3;">
				<path style="fill:#000072;" d="M2302.476,1457.872c-124.497,0-229.014-146.145-258.081-314.282
					c-5.239,27.245-8.052,56.445-8.052,87.482c0,203.103,119.153,406.801,266.133,406.801
					c146.982,0,266.135-203.698,266.135-406.801c0-31.036-2.813-60.237-8.052-87.482
					C2531.489,1311.727,2426.973,1457.872,2302.476,1457.872z"/>
			</g>
			<g style="opacity:0.6;">
				<path style="fill:#FFFFFF;" d="M2563.433,1154.966c-1.311,9.561-2.853,19.071-4.652,28.504
					c-20.922-98.287-73.638-169.997-142.649-206.854c2.339,3.598,3.598,7.454,3.598,11.489c0,18.3-26.114,33.156-58.344,33.156
					c-32.231,0-58.345-14.856-58.345-33.156c0-17.838,24.829-32.411,55.954-33.105c-18.223-4.318-37.115-6.528-56.52-6.528
					c-122.087,0-224.949,87.62-256.306,234.999c-1.799-9.433-3.341-18.943-4.652-28.504
					c24.366-162.826,131.931-260.727,260.958-260.727C2431.502,894.239,2539.067,992.141,2563.433,1154.966z"/>
			</g>
			<g>
				<path style="fill:#000072;" d="M2302.475,1652.401c-74.736,0-145.928-47.593-200.469-134.014
					c-50.962-80.752-80.191-185.474-80.191-287.315c0-100.703,28.15-187.124,81.397-249.907
					c51.035-60.176,121.802-93.32,199.263-93.32s148.228,33.144,199.263,93.32c53.247,62.783,81.396,149.204,81.396,249.907
					c0,101.841-29.229,206.563-80.19,287.315C2448.403,1604.809,2377.212,1652.401,2302.475,1652.401z M2302.475,916.898
					c-148.145,0-251.606,129.194-251.606,314.175c0,205.303,119.922,392.276,251.606,392.276s251.606-186.973,251.606-392.276
					C2554.082,1046.093,2450.62,916.898,2302.475,916.898z"/>
			</g>
		</g>
		<g>
			<path style="fill:#000072;" d="M2305.898,2577.89c-5.522,0-10-4.478-10-10v-866.616c0-5.522,4.478-10,10-10s10,4.478,10,10
				v866.616C2315.898,2573.412,2311.421,2577.89,2305.898,2577.89z"/>
		</g>
		<g>
			<path style="fill:#000072;" d="M2305.898,2592.982c-5.522,0-10-4.478-10-10v-104.678l288.931-936.499
				c1.626-5.273,7.246-8.228,12.505-6.606c5.278,1.626,8.232,7.227,6.606,12.505l-288.042,933.618v101.66
				C2315.898,2588.505,2311.421,2592.982,2305.898,2592.982z"/>
		</g>
		<g>
			<path style="fill:#000072;" d="M2318.838,2605.854c-5.522,0-10-4.477-10-10v-114.531l-288.037-933.618
				c-1.626-5.278,1.328-10.879,6.606-12.505c5.264-1.631,10.879,1.323,12.505,6.606l288.926,936.499v117.549
				C2328.838,2601.376,2324.36,2605.854,2318.838,2605.854z"/>
		</g>
		<g>
			<path style="fill:#B5CFDD;" d="M2304.977,2393.178c-14.925-1.963-49.091-1.742-48.643,27.127
				c0.355,22.863,33.388,42.49,33.388,42.49s-24.761,14.875-18.206,43.469c5.176,22.579,25.245,31.528,25.245,31.528
				s-47.562,30.949-20.065,58.844c27.497,27.895,80.619,21.021,80.619,21.021s16.162-30.286,24.23-113.102
				C2388.913,2428.92,2337.379,2397.439,2304.977,2393.178z"/>
			<path style="fill:#000072;" d="M2342.441,2620.951c-18.179,0-48.481-3.242-67.529-22.564c-6.973-7.07-10.039-14.985-9.116-23.515
				c1.831-16.89,18.857-31.294,26.245-36.802c-6.333-3.867-18.901-13.54-22.959-31.25c-5.405-23.564,9.448-38.491,16.206-43.892
				c-8.525-5.708-31.143-22.705-31.455-42.583c-0.137-8.804,2.725-15.879,8.501-21.025c12.954-11.538,36.157-9.512,42.969-8.623l0,0
				c35.659,4.692,86.05,38.95,78.73,114.101c-8.022,82.363-23.843,112.778-24.512,114.033l-0.61,1.138l-1.274,0.166
				C2356.924,2620.229,2351.035,2620.951,2342.441,2620.951z M2294.038,2394.965c-10.566,0-21.675,2.114-28.379,8.086
				c-4.644,4.141-6.938,9.932-6.826,17.217c0.332,21.191,31.851,40.19,32.168,40.381l3.579,2.129l-3.569,2.158
				c-0.947,0.576-23.115,14.341-17.056,40.771c4.839,21.113,23.638,29.717,23.828,29.8l4.189,1.87l-3.848,2.51
				c-0.249,0.166-25.332,16.719-27.358,35.532c-0.752,6.963,1.841,13.511,7.71,19.463c23.926,24.268,68.892,21.226,77.192,20.435
				c2.905-6.284,16.328-38.53,23.384-111.006c6.978-71.616-40.674-104.219-74.404-108.652
				C2301.318,2395.219,2297.71,2394.965,2294.038,2394.965z"/>
		</g>
		<g>
			<path style="fill:#000072;" d="M2355.444,2642.748c-1.191,0-2.402-0.146-3.608-0.454c-6.665-1.704-11.064-7.769-10.928-14.365
				c-2.925,3.365-7.383,5.352-12.129,4.956c-41.421-3.325-58.833-21.431-63.081-26.724c-11.396-11.963-12.754-24.287-11.855-32.583
				c1.553-14.351,10.83-26.665,19.482-35.249c-6.519-6.626-13.037-16.06-15.962-28.818c-4.414-19.233,1.553-34.638,9.707-45.313
				c-11.421-9.79-24.971-25.249-25.259-43.667c-0.19-12.28,4.141-22.72,12.524-30.19c16.309-14.526,42.183-12.93,52.534-11.563
				c40.293,5.298,97.275,43.545,89.131,127.183c-6.06,62.207-12.954,82.998-19.619,103.11c-2.383,7.188-4.634,13.979-6.875,22.749
				C2367.827,2638.383,2361.919,2642.748,2355.444,2642.748z M2294.072,2407.001c-8.13,0-16.367,1.421-20.415,5.029
				c-1.343,1.196-2.876,3.193-2.803,8.052c0.171,11.03,18.125,25.376,26.289,30.229l20.898,12.417l-20.84,12.52
				c-1.479,0.938-15.513,10.386-11.528,27.769c3.423,14.927,16.587,21.309,17.148,21.577l23.496,11.118l-21.636,14.253
				c-6.689,4.404-20.908,16.772-21.963,26.768c-0.234,2.236,0.039,5.366,4.316,9.707l1.577,1.895
				c0.19,0.215,10.635,13.037,42.49,15.596c6.387,0.513,11.475,5.083,12.939,10.977c1.602-5.435,3.203-10.254,4.766-14.975
				c6.445-19.448,12.534-37.813,18.276-96.782c6.631-68.062-38.965-92.275-64.004-95.571
				C2300.254,2407.206,2297.168,2407.001,2294.072,2407.001z"/>
		</g>
		<g>
			<g>
				
					<ellipse transform="matrix(0.9891 -0.147 0.147 0.9891 -353.6568 253.4194)" style="fill:#000072;" cx="1538.318" cy="2520.265" rx="66.812" ry="92.277"/>
			</g>
			<g>
				
					<ellipse transform="matrix(0.9891 -0.1469 0.1469 0.9891 -351.0115 255.3994)" style="fill:#FFFFFF;" cx="1553.063" cy="2503.38" rx="20.187" ry="30.986"/>
			</g>
		</g>
		<g>
			<path style="fill:#000072;" d="M1960.388,2344.51c-8.162,6.266-15.303,13.174-21.797,20.302
				c-6.499,7.133-12.275,14.72-17.114,22.837c-4.849,8.109-8.904,16.619-12.212,25.43c-3.362,8.787-6.084,17.821-8.379,27.04
				l-22.102-14.287l0.002-0.001c4.036-3.286,7.498-5.664,11.433-8.076c3.818-2.407,7.803-4.501,11.799-6.545
				c8.081-3.936,16.479-7.231,25.156-9.705c8.682-2.412,17.583-4.274,26.672-4.518c9.036-0.302,18.237,0.751,26.716,4.081
				c0.862,0.339,1.287,1.312,0.947,2.174c-0.183,0.464-0.549,0.802-0.981,0.962l-0.044,0.015
				c-8.328,3.029-15.957,5.691-23.381,8.799c-3.687,1.591-7.368,3.004-10.942,4.728c-3.621,1.558-7.168,3.284-10.645,5.15
				c-6.995,3.604-13.779,7.617-20.391,11.838c-3.345,2.043-6.572,4.275-9.819,6.417l-9.211,6.381l-0.54,0.394
				c-6.167,4.515-14.827,3.176-19.343-2.991c-2.549-3.479-3.215-7.816-2.219-11.691c2.776-10.58,6.714-20.947,11.758-30.789
				c5.024-9.855,11.299-19.105,18.506-27.502c7.368-8.26,15.508-15.846,24.824-21.681c9.321-5.74,19.558-10.155,30.574-11.045
				c0.676-0.055,1.267,0.449,1.323,1.124c0.034,0.427-0.156,0.822-0.471,1.067L1960.388,2344.51z"/>
		</g>
		<g>
			<path style="fill:#000072;" d="M1754.546,2674.761c11.199-2.512,21.514-4.781,31.357-7.98
				c9.819-3.177,19.143-6.987,27.983-11.829c17.698-9.747,32.754-23.805,46.484-41.216l0.042-0.054
				c1.738-2.205,4.934-2.583,7.139-0.844c1.628,1.282,2.258,3.363,1.78,5.249c-5.93,23.24-22.28,44.445-44.058,56.957
				c-10.835,6.29-22.971,10.404-35.298,11.72c-12.302,1.316-24.79,0.146-36.106-4.304c-2.07-0.814-3.091-3.153-2.275-5.225
				c0.505-1.283,1.594-2.162,2.844-2.452L1754.546,2674.761z"/>
		</g>
	</g>
</g>
</svg>
