<?xml version="1.0" encoding="utf-8"?>
<!-- Generator: Adobe Illustrator 27.5.0, SVG Export Plug-In . SVG Version: 6.00 Build 0)  -->
<svg version="1.1" id="Layer_1" xmlns="http://www.w3.org/2000/svg" xmlns:xlink="http://www.w3.org/1999/xlink" x="0px" y="0px"
	 viewBox="0 0 4000 4000" style="enable-background:new 0 0 4000 4000;" xml:space="preserve">
<g>
	<g>
		<g>
			<g>
				<g>
					<rect style="fill:#9CFC8D;" width="4000" height="4000"/>
				</g>
			</g>
		</g>
	</g>
	<g>
		<g style="opacity:0.2;">
			<g>
				<g>
					<g>
						<ellipse style="fill:#420000;" cx="2067.018" cy="3306.043" rx="1290.477" ry="118.957"/>
					</g>
				</g>
			</g>
		</g>
		<g>
			<g>
				<g>
					<g>
						<g>
							<path style="fill:#FFFFFF;" d="M2729.075,2486.896c0,0,20.117-189.821,47.664-211.311
								c27.548-21.489,165.437,82.375,165.437,82.375L2729.075,2486.896z"/>
						</g>
					</g>
				</g>
			</g>
			<g>
				<g>
					<g>
						<g>
							<path style="fill:#FFFFFF;" d="M2967.247,2320.268c0,0-35.815-171.827,0-195.107s166.542,44.769,166.542,44.769
								L2967.247,2320.268z"/>
						</g>
					</g>
				</g>
			</g>
			<g>
				<g>
					<g>
						<g>
							<path style="fill:#FFFFFF;" d="M3160.65,2144.859c0,0-75.212-154.006-51.932-179.077
								c23.28-25.071,161.169-14.326,161.169-14.326S3222.58,2088.132,3160.65,2144.859z"/>
						</g>
					</g>
				</g>
			</g>
			<g>
				<g>
					<g>
						<g>
							<path style="fill:#000072;" d="M2729.074,2509.18c-4.155,0-8.308-1.16-11.953-3.477
								c-7.146-4.541-11.101-12.739-10.208-21.157c0.208-1.965,5.2-48.718,13.689-98.962c16.16-95.635,29.941-117.83,42.427-127.571
								c20.891-16.296,55.193-7.107,118.418,31.709c38.376,23.564,72.693,49.351,74.136,50.437
								c5.908,4.451,9.224,11.543,8.848,18.931c-0.374,7.388-4.39,14.106-10.72,17.937l-213.101,128.936
								C2737.063,2508.109,2733.066,2509.18,2729.074,2509.18z M2789.382,2294.957c-10.403,16.926-23.579,82.412-32.668,149.17
								l145.168-87.834C2853.344,2322.479,2805.986,2296.427,2789.382,2294.957z"/>
						</g>
					</g>
				</g>
			</g>
			<g>
				<g>
					<g>
						<g>
							<path style="fill:#000072;" d="M2967.243,2342.552c-2.314,0-4.646-0.361-6.912-1.101c-7.59-2.476-13.274-8.823-14.902-16.636
								c-0.376-1.804-9.253-44.673-13.794-91.206c-7.102-72.759,0.134-111.968,23.467-127.131
								c42.168-27.405,146.204,21.418,188.977,43.684c6.475,3.372,10.889,9.7,11.814,16.941c0.928,7.241-1.753,14.478-7.173,19.37
								l-166.543,150.337C2978.022,2340.56,2972.68,2342.552,2967.243,2342.552z M2979.804,2143.621
								c-9.414,11.641-8.01,69.175,2.163,133.335l112.388-101.45C3042.29,2151.783,2992.114,2137.332,2979.804,2143.621z
								 M2980.073,2143.304"/>
						</g>
					</g>
				</g>
			</g>
			<g>
				<g>
					<g>
						<g>
							<path style="fill:#000072;" d="M3160.649,2167.144c-1.382,0-2.771-0.129-4.153-0.391
								c-6.904-1.309-12.788-5.801-15.872-12.114c-0.786-1.609-19.426-39.885-35.491-81.97
								c-26.089-68.345-29.783-103.706-12.747-122.051c26.628-28.684,123.723-25.706,179.231-21.379
								c6.882,0.535,13.127,4.231,16.912,10.005c3.782,5.776,4.675,12.979,2.417,19.502
								c-2.007,5.798-49.905,142.698-115.247,202.546C3171.555,2165.089,3166.172,2167.144,3160.649,2167.144z M3126.467,1980.162
								c-1.931,16.138,15.403,69.224,40.247,124.983c31.533-40.481,57.678-98.994,71.499-133.201
								C3186.657,1969.971,3139.46,1973.236,3126.467,1980.162z M3126.865,1978.143"/>
						</g>
					</g>
				</g>
			</g>
			<g>
				<g>
					<g>
						<g>
							<path style="fill:#2AC644;" d="M3336.096,2445.441c-69.752,354.332-295.166,638.914-606.433,767.945
								c-0.223,0.112-0.39,0.166-0.614,0.278c0,0-12.87,17.66-38.274,38.052c-0.167,0.112-0.279,0.167-0.279,0.167
								c-22.676,18.162-55.323,38.441-97.665,50.253c-51.423,14.318-117.22,16.212-196.89-13.26c0,0-90.533,76.995-209.925,78.109
								c-53.651,0.502-113.209-14.374-172.933-58.443c-12.034-8.913-24.124-18.998-36.158-30.419c0,0-84.627,12.424-191.206-1.616
								c-50.031-6.63-104.851-19.053-158.001-41.339c0,0-112.818,42.954-236.39,0c0,0-80.561,69.808-257.838,64.46
								c-166.582-5.071-290.487-214.105-322.634-488.991c-0.334-2.897-0.668-5.794-1.002-8.692
								c-2.173-19.89,18.218-34.653,36.436-26.24l99.169,45.796l31.198-116.941c5.182-19.388,29.584-25.684,43.456-11.198
								l91.87,95.882l47.691-62.286c10.808-14.151,32.369-13.26,42.063,1.67l39.11,60.505
								c-0.613-2.451-12.813-54.376,118.279-85.853l16.1-102.066c0,0-381.409,123.571-424.42-69.808
								c-42.954-193.435,193.435-311.601,359.96-343.859c0,0,43.4-89.14,134.936-164.185
								c45.183-36.994,102.065-70.588,171.261-88.305c0,0-134.268-71.256-220.232-100.06
								c-85.965-28.859-188.031-55.713-188.031-152.43c0,0-114.045,15.488-183.852-156.385
								c-17.495-43.066-22.452-88.807-16.102-132.764c4.959-34.709,16.937-68.248,35.322-98.5
								c51.144-84.349,151.873-142.903,288.202-128.084l1.95-2.786l143.071-206.751c0,0,9.192-69.529,43.734-134.546
								c44.459-83.96,131.147-160.453,294.721-69.585c0,0,141.51-89.531,311.601-10.753c0,0,338.455-257.894,494.228,273.996
								c0,0,100.729,81.842,155.16,260.011c16.714,54.543,29.082,118.167,32.87,191.262c0.836,16.323,0.892,32.035,0.167,47.189
								c-8.857,195.719-138.668,298.509-212.711,341.52c0,0-0.056,0.056-0.223,0.167c-13.037,7.521-24.291,13.204-32.87,17.271
								h-0.056c-11.031,5.126-17.55,7.522-17.55,7.522s-2.897,4.011-4.512,15.544c-3.287,23.566-1.171,78.443,42.118,193.935
								c64.516,171.93,112.818,236.39,155.828,354.613c0,0,370.936-195.497,526.932-542.922c3.732-8.412,12.368-11.7,20.057-10.028
								c5.459,1.114,10.362,4.68,12.758,10.752c2.228,5.683,4.679,11.923,7.186,18.83c7.02,19.445,14.765,43.568,22.006,72.093
								c0,0,0,0,0,0.056C3354.537,2095.118,3374.427,2250.891,3336.096,2445.441z"/>
						</g>
					</g>
				</g>
			</g>
			<g style="opacity:0.2;">
				<g>
					<g>
						<g>
							
								<ellipse transform="matrix(0.7071 -0.7071 0.7071 0.7071 -32.6521 1881.8518)" style="fill:#000072;" cx="2255.27" cy="980.341" rx="167.813" ry="167.813"/>
						</g>
					</g>
				</g>
			</g>
			<g style="opacity:0.2;">
				<g>
					<g>
						<g>
							<path style="fill:#000072;" d="M1831.603,980.341c0,92.68-72.753,158.962-165.433,158.962s-170.192-66.282-170.192-158.962
								s75.132-167.813,167.813-167.813S1831.603,887.66,1831.603,980.341z"/>
						</g>
					</g>
				</g>
			</g>
			<g style="opacity:0.6;">
				<g>
					<g>
						<g>
							<path style="fill:#FFFFFF;" d="M1791.403,1406.621c0,0-48.693-107.414-146.58-169.534
								c-97.887-62.064-214.884-14.318-377.287-28.636c-128.473-11.31-224.411,126.858-258.786,184.966
								c4.959-34.709,16.937-68.248,35.322-98.5c51.144-84.349,151.873-142.903,288.202-128.084l1.95-2.786
								c103.292,1.225,226.584-11.087,312.827,18.496C1773.464,1225.944,1791.403,1406.621,1791.403,1406.621z"/>
						</g>
					</g>
				</g>
			</g>
			<g style="opacity:0.6;">
				<g>
					<g>
						<g>
							<path style="fill:#FFFFFF;" d="M2809.777,1513.366c-21.783-136.329-79.447-337.619-238.116-471.775
								c0,0-56.047-273.996-234.773-300.682c-178.727-26.686-249.426,48.805-249.426,48.805s-58.945-50.754-250.206-12.981
								c0,0-139.06-66.521-316.226,44.514c44.459-83.96,131.147-160.453,294.721-69.585c0,0,141.51-89.531,311.601-10.753
								c0,0,338.455-257.894,494.228,273.996c0,0,100.729,81.842,155.16,260.011c16.714,54.543,29.082,118.167,32.87,191.262
								C2810.447,1482.501,2810.502,1498.212,2809.777,1513.366z"/>
						</g>
					</g>
				</g>
			</g>
			<g style="opacity:0.6;">
				<g>
					<g>
						<g>
							<path style="fill:#FFFFFF;" d="M3286.791,1890.987c-35.769,107.915-171.875,443.919-525.149,612.227
								c0,0-102.066-188.085-159.395-266.864c-57.273-78.779-110.979-233.103-118.167-356.506l79.837-7.522
								c-11.031,5.126-17.55,7.522-17.55,7.522s-2.897,4.011-4.512,15.544c-3.287,23.566-1.171,78.443,42.118,193.935
								c64.516,171.93,112.818,236.39,155.828,354.613c0,0,370.936-195.497,526.932-542.921
								C3270.466,1892.603,3279.102,1889.316,3286.791,1890.987z"/>
						</g>
					</g>
				</g>
			</g>
			<g>
				<g>
					<g>
						<g>
							<path style="fill:#FFED94;" d="M2120.078,1982.297c0,0,5.516,71.257,39.557,178.671
								c33.986,107.469,238.172,664.04,112.818,906.835c-125.354,242.853-295.501,208.813-295.501,208.813
								s-182.682,26.854-349.207-42.956c0,0-404.475-155.827-202.238-624.986c0,0,58.777-385.253,191.485-675.127
								c0,0-134.268-71.257-220.233-100.06c-85.965-28.86-188.031-55.713-188.031-152.431c0,0,71.591-43.01,146.803-28.636
								c63.624,12.089,119.615,70.365,209.09,72.816c16.268,0.445,33.651-0.947,52.37-4.791
								c29.862-6.129,59.279-13.705,88.137-21.616c37.718-10.307,74.489-21.171,109.865-30.085
								c46.911-11.811,91.37-20.224,132.652-19.332c0.836,0,1.616,0.056,2.451,0.056c22.731,0.668,50.197-0.167,79.502-4.178
								c36.771-4.959,76.438-14.931,113.153-32.982c14.987-7.354,29.417-16.045,43.01-26.296
								c30.251-22.786,56.159-53.317,73.373-93.932c5.294-12.424,9.805-25.795,13.316-40.224
								c42.954-175.495,293.662-82.4,299.01,110.979C2576.867,1756.27,2471.18,1989.596,2120.078,1982.297z"/>
						</g>
					</g>
				</g>
			</g>
			<g>
				<g>
					<g>
						<g>
							<path style="fill:#000072;" d="M2183.76,3387.65c-64.558,0-139.988-20.566-214.331-87.637
								c-41.804,4.639-195.754,16.23-342.41-42.563c-28.87,9.18-124.9,34.15-231.646,0.991
								c-28.179,19.321-112.734,66.533-262.529,61.958c-173.184-5.278-311.88-213.257-345.134-517.52
								c-1.909-17.461,5.469-34.014,19.731-44.272c14.253-10.244,32.268-11.968,48.188-4.624l75.144,34.678l24.341-91.328
								c4.531-17.007,17.41-29.775,34.451-34.16c17.043-4.36,34.478,0.581,46.653,13.286l73.892,77.09l31.848-41.621
								c9.48-12.397,24.404-19.463,40.049-18.813c15.596,0.615,29.966,8.804,38.442,21.909l15.254,23.579
								c19.478-22.93,54.248-41.299,103.721-54.785l8.357-52.979c-73.889,19.663-248.269,56.567-348.193-0.552
								c-37.444-21.406-61.164-53.552-70.505-95.549c-13.669-61.553-2.703-120.046,32.593-173.865
								c69.834-106.477,221.187-170.613,334.304-194.568c21.077-38.479,105-175.186,263.032-237.368
								c-46.414-23.137-117.427-56.926-169.331-74.316c-5.652-1.897-11.362-3.782-17.109-5.679
								c-76.934-25.395-171.316-56.545-184.556-145.911c-41.292-4.077-127.031-30.242-183.784-169.971
								c-36.836-90.649-22.705-196.011,36.88-274.958c62.698-83.071,164.314-124.995,280.273-116.162l134.668-194.578
								c5.117-31.702,35.208-185.642,143.621-240.173c60.674-30.515,133.24-24.106,215.854,19.021
								c37.859-19.934,161.96-73.347,309.404-10.767c34.854-23.027,146.021-86.189,266.04-46.765
								c110.674,36.357,194.819,148.606,250.151,333.643c30.745,27.598,175.776,172.563,190.769,462.705
								c8.784,169.424-67.188,278.945-132.468,340.986c-54.932,52.207-110.837,79.971-134.172,90.171
								c-2.825,18.665-3.435,71.021,39.602,185.286c34.131,90.618,63.943,151.807,90.244,205.791
								c19.751,40.537,38.569,79.167,56.35,124.419c81.208-48.013,365.691-231.873,494.954-519.778
								c6.602-14.697,21.384-23.799,37.429-23.63c16.152,0.344,30.449,10.247,36.423,25.227
								c11.455,28.728,21.584,60.239,30.107,93.655c0.063,0.254,0.125,0.508,0.181,0.764
								c25.291,99.285,47.004,259.536,7.444,460.327v-0.005c-34.878,177.175-109.924,342.458-217.029,477.976
								c-106.038,134.165-243.56,239.287-397.981,304.263c-6.096,7.358-18.918,21.611-38.228,37.109
								c-0.381,0.308-0.771,0.601-1.172,0.884c-49.355,39.189-152.81,95.063-303.55,43.984
								c-20.09,14.863-67.786,46.392-131.184,63.584C2243.974,3382.786,2215.151,3387.65,2183.76,3387.65z M1976.943,3254.334
								c5.664,0,11.169,2.158,15.337,6.108c186.833,177.036,381.106,16.841,389.282,9.927c6.138-5.176,14.612-6.685,22.141-3.896
								c130.574,48.315,220.469,8.462,272.893-33.496c0.352-0.283,0.71-0.552,1.077-0.811c21.907-17.734,33.32-33.037,33.435-33.193
								c2.068-2.798,4.807-5.137,7.913-6.704c0.334-0.171,0.852-0.41,1.279-0.601c0.283-0.132,0.566-0.259,0.854-0.376
								c303.494-125.806,525.215-406.802,593.101-751.663c0-0.002,0-0.002,0-0.005c38.049-193.108,17.151-346.616-7.08-441.389
								c-0.063-0.256-0.125-0.515-0.181-0.774c-7.043-27.515-15.212-53.586-24.333-77.661
								c-159.595,344.316-517.163,535.793-532.444,543.848c-5.693,3.003-12.415,3.394-18.416,1.074
								c-6.006-2.317-10.715-7.119-12.917-13.169c-19.688-54.121-40.156-96.13-63.855-144.773
								c-26.729-54.861-57.021-117.041-91.885-209.604c-54.563-144.856-44.966-204.646-38.018-224.009
								c2.009-6.384,6.86-11.792,13.618-14.26c0.635-0.234,67.495-25.334,131.204-86.375
								c84.238-80.71,123.748-183.396,117.432-305.203c-15.342-296.938-178.225-433.816-179.868-435.166
								c-3.467-2.842-6.035-6.697-7.295-11.001c-50.867-173.684-125.837-277.993-222.832-310.034
								c-119.563-39.504-235.371,46.648-236.531,47.524c-6.567,4.971-15.369,5.93-22.844,2.473
								c-157.283-72.864-289.001,8.525-290.315,9.363c-6.892,4.36-15.615,4.609-22.742,0.649
								c-73.476-40.823-135.771-48.96-185.146-24.187c-97.488,48.923-120.178,210.159-120.396,211.782
								c-0.469,3.491-1.76,6.841-3.765,9.739l-145.022,209.536c-4.648,6.719-12.6,10.339-20.732,9.473
								c-105.527-11.467-197.8,24.063-253.206,97.471c-50.185,66.494-62.126,155.134-31.164,231.333
								c61.77,152.083,156.426,143.113,160.437,142.661c6.318-0.732,12.747,1.27,17.485,5.5c4.736,4.229,7.568,10.261,7.568,16.611
								c0,69.055,61.58,94.548,155.527,125.559c5.818,1.919,11.602,3.828,17.312,5.747
								c86.699,29.045,218.037,98.555,223.586,101.499c8.13,4.314,12.771,13.181,11.682,22.319
								c-1.086,9.138-7.681,16.667-16.594,18.953c-196.577,50.4-290.776,238.779-291.707,240.676
								c-3.074,6.279-8.926,10.776-15.788,12.104c-105.552,20.449-251.667,79.177-316.086,177.4
								c-28.447,43.376-37.314,90.396-26.355,139.751c6.589,29.626,22.644,51.382,49.084,66.506
								c109.353,62.556,344.351-12.305,346.716-13.066c7.371-2.385,15.452-0.769,21.34,4.263c5.886,5.032,8.743,12.761,7.534,20.41
								l-16.101,102.063c-1.404,8.911-8.04,16.094-16.809,18.198c-86.66,20.811-102.8,49.692-101.743,59.272
								c2.358,10.42-3.02,21.079-12.861,25.352c-9.99,4.346-21.667,0.815-27.585-8.335l-39.138-60.498
								c-0.649-1.006-1.584-1.538-2.778-1.582c-1.15-0.083-2.168,0.41-2.893,1.357l-47.646,62.271
								c-3.953,5.166-9.966,8.35-16.46,8.711c-6.482,0.396-12.825-2.134-17.327-6.831l-91.882-95.859
								c-0.347-0.361-1.389-1.445-3.369-0.962c-1.968,0.508-2.361,1.987-2.49,2.471l-31.162,116.924
								c-1.694,6.357-6.108,11.641-12.061,14.434c-5.955,2.798-12.837,2.822-18.811,0.063l-99.197-45.776
								c-0.454-0.215-1.833-0.845-3.484,0.337c-1.672,1.206-1.506,2.744-1.45,3.247c14.724,134.731,52.666,256.23,106.831,342.119
								c38.059,60.347,102.844,132.876,195.347,135.693c164.956,5.054,241.904-58.472,242.661-59.111
								c6.013-5.093,14.375-6.719,21.816-4.126c113.953,39.614,220.122,0.605,221.182,0.21c5.325-2.002,11.255-1.914,16.506,0.288
								c158.555,66.46,335.593,41.724,337.368,41.46C1974.8,3254.412,1975.874,3254.334,1976.943,3254.334z M2719.677,3191.966
								c-0.015,0.01-0.029,0.015-0.044,0.024C2719.648,3191.981,2719.663,3191.976,2719.677,3191.966z M2719.724,3191.947
								c-0.012,0.005-0.024,0.01-0.039,0.02C2719.699,3191.956,2719.712,3191.951,2719.724,3191.947z M2719.765,3191.922
								c-0.012,0.01-0.024,0.015-0.037,0.02C2719.741,3191.937,2719.753,3191.932,2719.765,3191.922z M1262.495,2782.22
								c0.037,0.142,0.068,0.278,0.1,0.42C1262.556,2782.42,1262.512,2782.279,1262.495,2782.22z M2525.285,1886.993
								c0.002,0.005,0.005,0.01,0.005,0.017C2525.29,1887.003,2525.288,1886.998,2525.285,1886.993z M2525.259,1886.915
								c0.002,0.007,0.005,0.012,0.007,0.02C2525.263,1886.927,2525.261,1886.922,2525.259,1886.915z M2525.234,1886.839
								c0.002,0.007,0.005,0.012,0.005,0.02C2525.239,1886.851,2525.237,1886.846,2525.234,1886.839z M2525.21,1886.766
								c0.002,0.005,0.002,0.007,0.002,0.01C2525.212,1886.773,2525.212,1886.771,2525.21,1886.766z"/>
						</g>
					</g>
				</g>
			</g>
			<g>
				<g>
					<g>
						<g>
							<path style="fill:#000072;" d="M2554.271,1900.681c-38.508,13.584-76.66,25.615-115.371,37.08
								c-38.643,11.387-77.556,21.865-116.719,31.445c-39.226,9.38-78.745,17.69-118.569,24.707
								c-39.927,6.609-80.178,11.794-120.842,14.436c-8.677,0.564-16.167-6.013-16.731-14.69
								c-0.552-8.523,5.786-15.903,14.233-16.694l0.283-0.024c39.043-3.616,77.988-9.702,116.738-17.205
								c38.704-7.92,77.197-17.112,115.457-27.371c38.213-10.461,76.211-21.814,113.926-34.053
								c37.615-12.256,75.378-25.332,111.887-39.343l0.308-0.117c11.492-4.409,24.385,1.331,28.794,12.825
								c4.409,11.492-1.331,24.385-12.825,28.794C2554.683,1900.531,2554.427,1900.624,2554.271,1900.681z"/>
						</g>
					</g>
				</g>
			</g>
			<g>
				<g>
					<g>
						<g>
							<path style="fill:#000072;" d="M1627.22,1913.742c1.885,1.03,4.934,2.537,7.61,3.777c2.71,1.331,5.635,2.539,8.472,3.804
								c5.762,2.437,11.594,4.88,17.578,7.046c5.94,2.261,11.951,4.392,18.054,6.355c6.038,2.114,12.214,3.889,18.376,5.725
								c24.692,7.229,50.017,12.783,75.601,17.212c12.854,1.838,25.679,4.067,38.652,5.264c6.477,0.664,12.942,1.533,19.441,2.036
								l19.526,1.375l9.773,0.671l9.795,0.295l19.612,0.596c13.083,0.161,26.182-0.195,39.297-0.261l0.681-0.005
								c7.227-0.037,13.113,5.793,13.152,13.02c0.034,6.955-5.405,12.676-12.258,13.125c-13.467,0.854-26.943,1.992-40.454,2.605
								l-20.296,0.554l-10.156,0.273l-10.164-0.105l-20.347-0.264c-6.785-0.134-13.559-0.642-20.347-0.947
								c-13.591-0.479-27.122-2.014-40.698-3.179c-27.085-3.091-54.119-7.395-80.92-13.589c-6.694-1.582-13.403-3.108-20.054-5.002
								c-6.677-1.736-13.33-3.669-19.961-5.762c-6.653-1.99-13.254-4.304-19.89-6.675c-3.318-1.25-6.614-2.405-9.971-3.804
								c-3.435-1.379-6.453-2.607-10.53-4.526c-11.142-5.244-15.928-18.528-10.684-29.67c5.244-11.145,18.528-15.928,29.67-10.684
								c0.396,0.186,0.784,0.381,1.162,0.586L1627.22,1913.742z"/>
						</g>
					</g>
				</g>
			</g>
			<g>
				<g>
					<g>
						<g>
							<path style="fill:#000072;" d="M2143.406,1991.103c0.222,2.803,0.71,6.841,1.147,10.33c0.479,3.643,0.999,7.307,1.57,10.991
								c1.138,7.363,2.427,14.761,3.835,22.158c2.825,14.8,6.064,29.604,9.709,44.346c7.161,29.504,15.837,58.794,25.254,87.813
								c19.541,58.655,39.211,118.132,56.943,177.944c35.469,119.722,65.901,241.482,82.566,366.436
								c8.091,62.461,12.803,125.803,9.485,189.817c-1.692,31.98-5.557,64.128-12.788,96.016
								c-3.728,15.925-8.335,31.768-14.116,47.349c-2.827,7.808-6.133,15.498-9.607,23.125l-5.525,11.296l-5.725,10.596
								c-15.259,28.242-32.664,55.591-52.842,81.162c-9.99,12.849-20.972,25.024-32.41,36.794
								c-11.697,11.555-23.916,22.681-37.107,32.771c-13.215,10.044-27.131,19.304-41.829,27.371
								c-14.722,8.022-30.21,14.805-46.255,20.164c-16.038,5.383-32.681,9.185-49.673,11.25c-8.498,1.03-17.073,1.667-25.779,1.687
								c-4.351,0.022-8.738-0.103-13.176-0.359c-2.254-0.183-4.458-0.315-6.782-0.591c-1.13-0.112-2.305-0.251-3.523-0.425
								l-1.87-0.271l-2.329-0.403l7.612,0.198c-6.548,0.901-12.156,1.489-18.157,2.063c-5.901,0.547-11.785,1.035-17.661,1.423
								c-11.75,0.796-23.481,1.309-35.215,1.592c-23.462,0.547-46.919,0.078-70.349-1.311
								c-46.836-2.925-93.621-9.602-139.451-21.431c-22.871-5.911-45.622-13.147-67.651-21.753l-16.604-6.702
								c-5.769-2.476-11.228-5.042-16.655-7.722c-10.818-5.359-21.321-11.106-31.589-17.236
								c-41.011-24.507-78.694-54.614-111.135-90.095c-32.415-35.427-59.229-76.511-77.7-121.255
								c-18.716-44.653-28.601-92.742-30.906-140.659c-2.283-48.005,3.113-95.818,13.601-141.929
								c5.234-23.079,11.714-45.781,19.106-68.115c7.563-22.268,16.059-44.138,25.215-65.681l-1.565,5.459
								c9.468-58.833,20.886-116.392,33.479-174.121c12.649-57.617,26.616-114.958,42.217-171.912
								c15.569-56.958,32.761-113.535,52.056-169.509c19.294-55.969,40.842-111.301,65.5-165.5l9.814,28.962
								c-36.616-19.204-74.138-37.754-111.726-55.222c-37.776-17.317-75.471-33.833-114.192-46.409
								c-19.797-6.56-40.068-13.103-60.391-20.806c-20.305-7.737-40.801-16.523-60.579-28.606
								c-19.609-12.029-39.026-27.766-52.866-49.316c-6.892-10.674-12.195-22.576-15.52-34.832
								c-3.354-12.266-4.783-24.792-4.827-36.985c-0.029-8.096,4.338-15.217,10.811-19.104c3.865-2.307,6.67-3.804,9.973-5.535
								c3.186-1.65,6.37-3.235,9.578-4.731c6.414-3.013,12.903-5.781,19.497-8.313c13.188-5.044,26.777-9.236,40.786-12.222
								c27.952-5.959,57.827-7.449,87.437-1.196c29.941,6.523,54.819,19.678,78.123,31.182
								c23.313,11.682,45.376,22.534,67.896,29.692c22.478,7.158,45.317,10.391,68.418,9.324
								c11.599-0.542,22.983-2.097,34.758-4.617c12.419-2.593,24.832-5.476,37.246-8.535
								c49.702-12.183,99.297-27.839,150.654-40.955c25.728-6.484,51.897-12.463,78.943-16.563
								c13.525-2.024,27.263-3.564,41.223-4.353c6.943-0.356,14.114-0.583,21.006-0.5l19.641,0.371
								c49.473,0.264,99.49-6.606,144.824-23.489c22.642-8.496,44.045-19.507,63.018-33.533c9.487-7.014,18.362-14.69,26.489-23.083
								c8.198-8.315,15.762-17.253,22.402-26.894c6.697-9.595,12.903-19.619,18.066-30.327
								c5.327-10.686,10.066-21.684,13.865-33.152l2.952-8.894c1.089-3.455,2.278-6.877,3.572-10.273
								c2.544-6.807,5.627-13.469,9.214-19.893c7.031-12.893,16.406-24.802,27.729-34.343c5.715-4.817,14.253-4.087,19.067,1.629
								c4.092,4.856,4.18,11.743,0.613,16.66l-0.283,0.388c-6.741,9.29-11.865,19.47-15.745,30.242
								c-1.902,5.4-3.474,10.942-4.839,16.57c-0.667,2.82-1.252,5.671-1.758,8.535c-0.532,2.888-1.226,6.721-1.96,10.032
								c-6.177,27.366-16.743,54.15-32.349,78.396c-7.798,12.075-16.753,23.433-26.572,33.958
								c-9.922,10.417-20.764,19.941-32.17,28.511c-22.859,17.178-48.196,30.391-74.265,40.408
								c-26.128,9.995-53.081,16.875-80.229,21.306c-27.07,4.431-54.48,6.579-81.838,6.577l-19.461-0.212
								c-6.145-0.027-12.007,0.22-18.078,0.571c-12.068,0.786-24.255,2.236-36.497,4.172c-24.495,3.909-49.189,9.719-73.957,16.182
								c-49.602,13.02-99.71,28.189-151.328,40.779c-12.91,3.125-25.911,6.091-39.023,8.777
								c-13.728,2.883-28.264,4.856-42.717,5.452c-14.504,0.63-29.155-0.161-43.572-2.143c-14.417-2.044-28.542-5.469-42.151-9.793
								c-27.234-8.718-51.995-21.333-75.034-33.418c-23.054-12.002-44.939-23.35-66.125-28.162
								c-21.435-4.91-44.827-4.419-67.851,0.144c-11.516,2.329-23.037,5.405-34.294,9.424c-5.63,1.995-11.199,4.204-16.648,6.597
								c-2.732,1.187-5.417,2.441-8.052,3.721c-2.512,1.213-5.479,2.756-7.239,3.738l10.808-19.101
								c0.044,17.607,4.231,33.782,13.228,47.649c8.879,13.95,22.671,25.671,38.691,35.474
								c16.047,9.837,34.246,17.781,53.115,24.946c18.911,7.173,38.574,13.54,58.599,20.168
								c41.121,13.376,80.422,30.632,118.884,48.264c38.499,17.898,76.216,36.538,113.906,56.304
								c10.457,5.481,14.717,18.135,9.912,28.755l-0.095,0.208c-23.906,52.551-44.976,106.601-63.894,161.489
								c-18.923,54.89-35.85,110.574-51.196,166.726c-15.381,56.147-29.175,112.778-41.672,169.695
								c-12.407,56.833-23.789,114.353-32.954,171.299l-0.01,0.063c-0.3,1.858-0.862,3.738-1.555,5.398
								c-8.704,20.498-16.755,41.223-23.887,62.209c-6.958,21.028-13.018,42.292-17.888,63.757
								c-9.766,42.9-14.624,86.726-12.554,130.037c2.102,43.254,10.923,85.996,27.549,125.659
								c16.406,39.734,40.229,76.335,69.456,108.291c29.209,31.965,63.635,59.519,101.016,81.846
								c9.338,5.579,18.892,10.796,28.535,15.574c9.756,4.949,18.858,8.572,29.58,12.808c20.515,8.015,41.37,14.644,62.715,20.168
								c42.651,11.013,86.709,17.334,131.018,20.1c22.163,1.311,44.409,1.758,66.611,1.24c11.099-0.266,22.188-0.752,33.223-1.501
								c5.52-0.364,11.016-0.82,16.484-1.328c5.366-0.503,11.116-1.133,15.881-1.787c2.146-0.295,4.265-0.286,6.311,0l1.301,0.195
								l1.55,0.225c0.703,0.103,1.455,0.193,2.254,0.271c1.528,0.188,3.201,0.278,4.812,0.417c3.311,0.186,6.682,0.288,10.09,0.269
								c6.816-0.007,13.748-0.525,20.649-1.362c13.821-1.68,27.595-4.797,40.979-9.302c13.394-4.478,26.453-10.173,38.989-17.007
								c12.517-6.877,24.502-14.851,35.999-23.574c11.477-8.772,22.239-18.586,32.627-28.828
								c10.173-10.496,20.032-21.382,29.087-33.047c18.284-23.169,34.36-48.362,48.594-74.714
								c28.73-50.439,39.116-109.575,42.454-169.541c3.137-60.059-1.304-121.084-9.17-181.66
								c-16.16-121.318-46.045-241.287-81.086-359.502c-17.563-59.229-36.88-117.649-56.577-176.777
								c-9.744-30.022-18.713-60.295-26.201-91.121c-3.801-15.391-7.205-30.918-10.2-46.606c-1.494-7.847-2.871-15.737-4.102-23.713
								c-0.618-3.984-1.191-8.003-1.721-12.056c-0.515-4.209-0.996-7.871-1.396-12.805c-0.999-12.268,8.137-23.02,20.405-24.019
								c12.266-0.996,23.018,8.14,24.016,20.405l0.002,0.034L2143.406,1991.103z"/>
						</g>
					</g>
				</g>
			</g>
			<g style="opacity:0.2;">
				<g>
					<g>
						<g>
							<path style="fill:#000072;" d="M3336.096,2443.937c-69.752,354.333-295.166,638.914-606.433,767.945
								c-0.223,0.112-0.39,0.166-0.614,0.278c0,0-12.87,17.662-38.274,38.052c-0.167,0.112-0.279,0.167-0.279,0.167
								c-50.253,40.225-149.311,90.756-294.554,36.993c0,0-214.885,182.682-419.016-10.752c0,0-182.682,26.854-349.207-42.954
								c0,0-112.818,42.954-236.39,0c0,0-80.561,69.808-257.838,64.46c-166.582-5.071-290.487-214.105-322.634-488.991
								c50.699,122.734,149.868,328.148,244.19,324.416c134.323-5.404,202.07-278.954,202.07-278.954
								s44.347,158.502,130.646,132.764c0,0,112.874,179.841,510.608,117.33c0,0-36.047-87.246-47.579-176.553
								c-3.956-30.531,40.057-40.057,49.083-10.696c37.048,120.673,106.578,283.466,213.769,294.72
								c62.063,6.519,107.024-43.845,139.115-110.924c-50.253-14.931-132.653-33.428-132.653-33.428s-19.276,121.231,0-22.006
								c19.222-143.293-83.735-247.142-327.257-258.174c-243.576-11.031-335.391-310.877-335.391-310.877
								c187.529,175.886,736.523,192.99,801.652,102.345c65.184-90.589,189.145-188.754,271.542-52.369
								c82.345,136.328,15.767,241.681,15.767,241.681c-121.287-35.935-184.298,18.106-217.28,93.542
								c7.968,76.215,37.941,213.046,149.812,168.419c52.481-20.948,112.317-18.942,160.007,11.366
								c47.356,29.973,217.598-126.683,169.965-358.311c0,0,534.746,53.618,497.807-762.853
								c7.02,19.444,14.765,43.568,22.006,72.092c0,0,0,0,0,0.056C3354.537,2093.614,3374.427,2249.387,3336.096,2443.937z"/>
						</g>
					</g>
				</g>
			</g>
			<g>
				<g>
					<g>
						<g>
							<path style="fill:#420000;" d="M1422.535,2586.589c33.953-3.765,67.271-6.702,100.916-9.136
								c33.569-2.517,67.153-4.487,100.759-6.006c67.209-3.047,134.49-4.197,201.765-3.401
								c67.288,1.267,134.548,4.67,201.606,10.964c67.002,7.083,133.755,17.188,199.517,32.539
								c5.151,1.201,8.352,6.353,7.151,11.504c-1.179,5.046-6.145,8.22-11.191,7.217l-0.2-0.042
								c-65.083-13.027-131.121-20.901-197.4-25.798c-66.377-4.111-132.922-5.371-199.463-4.521
								c-66.553,1.321-133.066,4.565-199.433,9.683c-33.181,2.551-66.331,5.554-99.397,9.089
								c-33.008,3.433-66.255,7.441-98.684,12.08l-0.332,0.049c-12.185,1.743-23.477-6.724-25.22-18.911
								c-1.743-12.185,6.721-23.477,18.909-25.22C1422.037,2586.65,1422.335,2586.613,1422.535,2586.589z"/>
						</g>
					</g>
				</g>
			</g>
			<g>
				<g>
					<g>
						<g>
							<path style="fill:#000072;" d="M2381.038,3270.824l70.042-52.048c6.235-4.634,15.044-3.335,19.678,2.9
								c4.089,5.503,3.55,13.015-0.918,17.886l-58.94,64.351c-8.352,9.119-22.512,9.739-31.628,1.389
								c-9.119-8.352-9.739-22.512-1.389-31.628C2378.831,3272.636,2379.954,3271.64,2381.038,3270.824z"/>
						</g>
					</g>
				</g>
			</g>
			<g>
				<g>
					<g>
						<g>
							<path style="fill:#000072;" d="M2729.057,3234.442c-4.739,0-9.514-1.504-13.562-4.614c-9.744-7.49-11.584-21.45-4.126-31.206
								l0,0c0.498-0.654,49.958-66.743,75.503-190.977c23.628-114.912,31.047-304.575-67.781-555.547
								c-4.509-11.45,1.118-24.39,12.571-28.899c11.453-4.512,24.39,1.121,28.899,12.571
								c103.464,262.744,94.817,462.534,69.341,583.867c-27.957,133.159-80.918,203.184-83.157,206.099
								C2742.356,3231.448,2735.744,3234.442,2729.057,3234.442z"/>
						</g>
					</g>
				</g>
			</g>
			<g>
				<g>
					<g>
						<g>
							<path style="fill:#FFED94;" d="M3336.121,2443.933c-69.752,354.334-295.166,638.915-606.434,767.946
								c29.751-38.609,68.417-111.37,86.133-240.233c0,0,598.634-238.842,512.948-978.929
								C3354.562,2093.611,3374.452,2249.384,3336.121,2443.933z"/>
						</g>
					</g>
				</g>
			</g>
			<g>
				<g>
					<g>
						<g>
							<path style="fill:#000072;" d="M2729.695,3234.163c-6.782,0-13.384-3.101-17.7-8.735c-6.138-8.013-6.121-19.155,0.042-27.153
								c27.834-36.123,64.607-105.288,81.707-229.668c1.094-7.944,6.37-14.688,13.818-17.661
								c1.445-0.581,147.842-60.381,281.724-207.705c178.892-196.851,252.017-448.501,217.346-747.961
								c-1.35-11.648,6.558-22.346,18.086-24.478c11.531-2.114,22.739,5.034,25.642,16.394
								c25.369,99.229,47.285,259.763,7.627,461.047v-0.005c-34.878,177.175-109.924,342.458-217.029,477.976
								c-107.124,135.537-246.387,241.44-402.737,306.25C2735.454,3233.612,2732.556,3234.163,2729.695,3234.163z
								 M2836.094,2987.147c-11.558,76.084-30.437,132.759-50.215,174.355c270.015-137.051,465.232-401.772,528.289-721.431
								c-2.666,8.442-5.452,16.831-8.354,25.161c-39.99,114.751-102.209,218.887-184.927,309.507
								C3001.235,2905.819,2875.124,2969.456,2836.094,2987.147z"/>
						</g>
					</g>
				</g>
			</g>
			<g>
				<g>
					<g>
						<g>
							<path style="fill:#000072;" d="M1262.169,2781.049c4.902,17.813,8.586,34.59,12.063,51.975
								c3.416,17.258,6.333,34.592,8.733,52.012c4.792,34.832,7.637,70.017,7.49,105.42c0.024,17.688-0.938,35.447-2.734,53.164
								c-1.736,17.717-4.612,35.425-8.848,52.915c-8.128,34.934-22.544,69.392-45.156,98.63c-4.524,5.85-12.932,6.924-18.782,2.4
								c-5.681-4.395-6.858-12.454-2.774-18.271l0.2-0.288c18.379-26.096,29.985-56.936,36.001-89.126
								c3.167-16.06,5.125-32.461,6.021-48.997c0.955-16.526,1.15-33.157,0.403-49.822c-1.299-33.32-5.432-66.675-11.44-99.695
								c-3.005-16.511-6.509-32.947-10.471-49.248c-3.94-16.16-8.411-32.788-13.291-47.915l-0.127-0.393
								c-3.782-11.719,2.654-24.282,14.37-28.062c11.719-3.782,24.282,2.654,28.064,14.37
								C1261.981,2780.402,1262.088,2780.766,1262.169,2781.049z"/>
						</g>
					</g>
				</g>
			</g>
			<g>
				<g>
					<g>
						<g>
							<g>
								<path style="fill:#FFFFFF;" d="M2113.672,1727.635c-34.375,4.679-66.188-46.465-84.071-82.344
									c36.771-4.959,76.438-14.931,113.153-32.982C2147.545,1655.208,2149.271,1722.731,2113.672,1727.635z"/>
							</g>
						</g>
					</g>
				</g>
				<g>
					<g>
						<g>
							<g>
								<path style="fill:#FFFFFF;" d="M1130.075,1660.487c0,0,4.651,67.123,78.654,136.366c0,0,25.298-28.345,18.61-125.2
									C1227.339,1671.653,1173.647,1695.629,1130.075,1660.487z"/>
							</g>
						</g>
					</g>
				</g>
				<g>
					<g>
						<g>
							<g>
								<path style="fill:#FFFFFF;" d="M1705.129,1698.831c-5.181,43.178-20.001,120.172-59.445,121.9
									c-35.211,1.56-64.572-54.822-81.062-95.492c16.268,0.445,33.651-0.947,52.37-4.791
									C1646.854,1714.318,1676.271,1706.742,1705.129,1698.831z"/>
							</g>
						</g>
					</g>
				</g>
				<g>
					<g>
						<g>
							<g>
								<path style="fill:#FFFFFF;" d="M1947.647,1649.414c-41.283-0.892-85.741,7.521-132.652,19.332
									c4.346-48.024,16.658-137.165,47.969-144.073C1891.209,1518.377,1926.699,1595.706,1947.647,1649.414z"/>
							</g>
						</g>
					</g>
				</g>
				<g>
					<g>
						<g>
							<g>
								<path style="fill:#FFFFFF;" d="M2259.137,1492.081c-17.214,40.615-43.122,71.145-73.373,93.932
									c-24.402-53.205-61.73-143.516-40.448-156.887C2164.927,1416.869,2221.419,1459.879,2259.137,1492.081z"/>
							</g>
						</g>
					</g>
				</g>
			</g>
			<g>
				<g>
					<g>
						<g>
							<g>
								<path style="fill:#000072;" d="M2109.009,1750.24c-34.512,0-67.898-31.907-99.353-95.007
									c-3.208-6.433-3.115-14.021,0.251-20.374c3.364-6.353,9.59-10.693,16.714-11.653c39.734-5.359,75.498-15.754,106.301-30.896
									c6.509-3.206,14.175-3.037,20.542,0.454c6.365,3.489,10.632,9.856,11.438,17.07c9.727,87.07-6.487,134.131-48.188,139.878
									c-0.012,0-0.024,0.002-0.037,0.005C2114.116,1750.064,2111.56,1750.24,2109.009,1750.24z M2113.672,1727.635h0.049H2113.672
									z M2064.25,1661.983c19.47,31.56,36.616,44.817,46.392,43.574c5.139-0.732,13.643-17.349,12.239-60.417
									C2104.463,1652.081,2084.878,1657.708,2064.25,1661.983z"/>
							</g>
						</g>
					</g>
				</g>
				<g>
					<g>
						<g>
							<g>
								<path style="fill:#000072;" d="M1208.728,1819.139c-5.642,0-11.089-2.141-15.227-6.013
									c-79.487-74.375-85.442-148-85.657-151.099c-0.613-8.84,4.07-17.205,11.929-21.301c7.854-4.092,17.395-3.149,24.292,2.415
									c32.09,25.881,72.598,8.848,74.312,8.11c6.638-2.864,14.319-2.363,20.491,1.399c6.174,3.762,10.205,10.256,10.703,17.468
									c6.983,101.104-18.948,135.671-24.216,141.575c-3.997,4.478-9.629,7.153-15.625,7.424
									C1209.394,1819.132,1209.06,1819.139,1208.728,1819.139z M1164.643,1700.079c7.202,16.094,18.55,35.691,36.399,56.589
									c2.893-12.881,5.281-31.189,5.125-56.336C1194.331,1702.166,1179.931,1702.843,1164.643,1700.079z"/>
							</g>
						</g>
					</g>
				</g>
				<g>
					<g>
						<g>
							<g>
								<path style="fill:#000072;" d="M1644.167,1843.05c-37.043,0-70.742-36.794-100.198-109.438
									c-2.827-6.97-1.946-14.897,2.341-21.077s11.421-9.731,18.923-9.575c15.273,0.427,31.196-1.04,47.275-4.343
									c32.083-6.582,63.201-14.829,86.729-21.277c7.165-1.963,14.822-0.229,20.439,4.612c5.62,4.844,8.462,12.168,7.578,19.534
									c-11.042,92.039-38.159,139.651-80.596,141.509C1645.827,1843.031,1644.995,1843.05,1644.167,1843.05z M1598.413,1745.972
									c18.53,36.626,35.859,53.018,46.284,52.495c8.445-0.371,23.306-20.032,33.132-69.312
									c-17.429,4.468-36.665,9.082-56.357,13.122C1613.76,1743.861,1606.062,1745.094,1598.413,1745.972z"/>
							</g>
						</g>
					</g>
				</g>
				<g>
					<g>
						<g>
							<g>
								<path style="fill:#000072;" d="M1814.995,1691.031c-5.249,0-10.398-1.855-14.477-5.344
									c-5.491-4.692-8.367-11.755-7.717-18.95c12.366-136.646,43.225-158.943,65.364-163.826
									c24.043-5.356,58.406,5.5,110.244,138.403c2.705,6.936,1.768,14.768-2.5,20.869s-11.331,9.604-18.743,9.509
									c-42.966-0.935-90.283,9.485-126.729,18.665C1818.637,1690.809,1816.809,1691.031,1814.995,1691.031z M1866.787,1547.591
									c-5.832,6.184-18.059,30.862-26.179,92.185c23.181-5.081,48.648-9.604,74.255-11.611
									C1888.664,1567.51,1872.153,1551.495,1866.787,1547.591z M1868.445,1546.207"/>
							</g>
						</g>
					</g>
				</g>
				<g>
					<g>
						<g>
							<g>
								<path style="fill:#000072;" d="M2185.764,1608.297c-1.824,0-3.657-0.225-5.461-0.679
									c-6.543-1.655-11.982-6.184-14.795-12.317c-60.63-132.197-56.66-169.583-32.046-185.046
									c18.337-11.465,49.292-12.69,140.146,64.878c7.395,6.313,9.841,16.692,6.047,25.645
									c-17.522,41.34-44.6,76.008-80.483,103.035C2195.268,1606.751,2190.552,1608.297,2185.764,1608.297z M2161.511,1451.165
									c1.174,12.087,7.183,39.858,32.422,98.416c15.22-15.068,27.847-32.261,37.751-51.418
									C2195.639,1468.624,2173.064,1455.609,2161.511,1451.165z"/>
							</g>
						</g>
					</g>
				</g>
			</g>
			<g>
				<g>
					<g>
						<g>
							<path style="fill:#000072;" d="M2215.662,1373.962c9.336-4.377,18.381-6.323,28.005-7.546
								c9.539-1.121,19.268-0.938,28.94,0.378c19.331,2.654,38.425,10.271,54.558,21.997c16.248,11.55,29.617,26.819,38.982,43.591
								c9.458,16.763,15.461,34.861,17.686,53.149c0.713,5.854-3.457,11.179-9.312,11.892c-4.314,0.525-8.34-1.601-10.444-5.1
								l-0.1-0.173c-8.726-14.546-17.397-28.142-27.122-40.224c-9.641-12.131-20.461-22.505-32.483-30.945
								c-12.007-8.496-25.33-14.858-39.688-20.061c-14.255-5.273-30.195-8.857-46.216-12.09l-1.042-0.21
								c-4.209-0.85-6.934-4.949-6.084-9.158C2211.846,1376.967,2213.531,1374.977,2215.662,1373.962z"/>
						</g>
					</g>
				</g>
			</g>
			<g>
				<g>
					<g>
						<g>
							<ellipse style="fill:#000072;" cx="1674.909" cy="972.856" rx="98.492" ry="119.141"/>
						</g>
					</g>
				</g>
			</g>
			<g>
				<g>
					<g>
						<g>
							
								<ellipse transform="matrix(0.9491 -0.3149 0.3149 0.9491 -208.8639 587.8671)" style="fill:#FFFFFF;" cx="1715.007" cy="940.364" rx="27.23" ry="48.028"/>
						</g>
					</g>
				</g>
			</g>
			<g style="opacity:0.35;">
				<g>
					<g>
						<g>
							<path style="fill:#FFFFFF;" d="M1629.027,995.865c6.749,16.319,7.431,31.528,1.525,33.97
								c-5.906,2.443-16.165-8.806-22.914-25.125c-6.749-16.319-7.432-31.528-1.525-33.97
								C1612.019,968.298,1622.278,979.547,1629.027,995.865z"/>
						</g>
					</g>
				</g>
			</g>
			<g>
				<g>
					<g>
						<g>
							<ellipse style="fill:#000072;" cx="2231.319" cy="978.641" rx="98.492" ry="124.926"/>
						</g>
					</g>
				</g>
			</g>
			<g>
				<g>
					<g>
						<g>
							
								<ellipse transform="matrix(0.2902 -0.957 0.957 0.2902 651.4297 2767.4009)" style="fill:#FFFFFF;" cx="2191.221" cy="944.571" rx="50.142" ry="27.348"/>
						</g>
					</g>
				</g>
			</g>
			<g style="opacity:0.35;">
				<g>
					<g>
						<g>
							
								<ellipse transform="matrix(0.3625 -0.932 0.932 0.3625 519.5539 2774.4072)" style="fill:#FFFFFF;" cx="2287.896" cy="1007.405" rx="33.308" ry="11.649"/>
						</g>
					</g>
				</g>
			</g>
			<g>
				<g>
					<g>
						<g>
							<path style="fill:#2AC644;" d="M2081.661,1157.901c-299.408-244.984-725.578-26.939-725.578-26.939"/>
						</g>
					</g>
				</g>
			</g>
			<g style="opacity:0.6;">
				<g>
					<g>
						<g>
							<path style="fill:#FFFFFF;" d="M2067.031,1146.377c0,0-256.375-147.14-624.401-2.739
								c-28.583,11.215-61.096,1.02-77.636-24.85l-0.233-0.365C1364.76,1118.424,1751.474,933.88,2067.031,1146.377z"/>
						</g>
					</g>
				</g>
			</g>
			<g>
				<g>
					<g>
						<g>
							<path style="fill:#000072;" d="M2074.962,1166.088l-18.857-13.884l-9.422-6.931l-9.885-6.252
								c-6.607-4.131-13.118-8.411-19.783-12.424l-20.552-11.086c-27.717-14.08-56.445-26.301-86.389-34.741
								c-29.802-8.728-60.29-15.32-91.24-18.633c-30.896-3.474-62.051-5.107-93.213-3.982c-62.31,1.99-124.399,11.78-184.822,27.835
								c-30.225,7.971-60.078,17.405-89.397,28.176c-14.612,5.503-29.182,11.123-43.477,17.283
								c-7.148,3.066-14.268,6.191-21.284,9.443c-6.922,3.193-14.209,6.667-20.408,9.91l-0.256,0.134
								c-10.906,5.708-24.375,1.492-30.083-9.414c-5.708-10.908-1.492-24.377,9.414-30.083c0.178-0.093,0.447-0.227,0.625-0.315
								c8.059-3.901,15.288-7.043,22.944-10.31c7.556-3.225,15.139-6.282,22.744-9.27c15.195-5.999,30.566-11.399,45.974-16.665
								c30.889-10.291,62.222-19.146,93.921-26.477c63.347-14.766,128.381-23.027,193.657-23.11
								c32.634-0.168,65.303,2.522,97.634,7.17c32.38,4.49,64.294,12.39,95.364,22.539c31.208,9.856,61.089,23.628,89.705,39.302
								l21.191,12.29c6.86,4.417,13.552,9.102,20.327,13.64l10.125,6.858l9.629,7.534l19.211,15.09
								c4.592,3.604,5.391,10.249,1.785,14.839c-3.533,4.5-9.985,5.357-14.563,1.995L2074.962,1166.088z"/>
						</g>
					</g>
				</g>
			</g>
			<g>
				<g>
					<g>
						<g>
							<path style="fill:#000072;" d="M1333.968,1143.102c23.393,2.004,48.323,0.566,73.958-1.204
								c25.669-1.816,52.141-3.696,78.862-3.655c26.726-0.015,53.684,1.882,80.266,6.047c26.685,4.324,52.407,10.916,78.271,19.404
								c26.458,8.979,51.213,23.496,72.161,41.958c21.021,18.46,38.005,40.916,50.886,65.049
								c12.93,24.158,22.002,49.954,27.851,76.267c5.823,26.343,8.521,53.237,7.407,80.403c-0.278,6.802-6.021,12.092-12.822,11.812
								c-6.665-0.274-11.875-5.789-11.824-12.41l0.002-0.173c0.225-24.526-3.047-49.419-9.172-73.354
								c-6.133-23.945-15.173-47.08-27.341-68.14c-12.129-21.067-27.532-39.973-45.896-55.063
								c-18.333-15.093-39.407-26.594-62.158-33.499c-23.476-6.855-48.149-12.397-72.642-15.527
								c-24.621-3.04-49.424-3.999-74.38-3.186c-24.983,0.762-50.063,3.328-75.881,5.996c-25.828,2.571-52.634,5.198-80.884,3.721
								c-12.295-0.645-21.738-11.13-21.094-23.425c0.642-12.292,11.13-21.738,23.423-21.094c0.215,0.01,0.427,0.024,0.642,0.042
								L1333.968,1143.102z"/>
						</g>
					</g>
				</g>
			</g>
			<g>
				<g>
					<g>
						<g>
							<path style="fill:#A6C96D;" d="M2081.661,1157.901"/>
						</g>
					</g>
				</g>
			</g>
			<g>
				<g>
					<g>
						<g>
							
								<path style="fill:none;stroke:#420000;stroke-width:44.5702;stroke-linecap:round;stroke-linejoin:round;stroke-miterlimit:10;" d="
								M2081.661,1157.901"/>
						</g>
					</g>
				</g>
			</g>
			<g>
				<g>
					<g>
						<g>
							
								<ellipse transform="matrix(0.9829 -0.1841 0.1841 0.9829 -228.217 318.3154)" style="fill:#000072;" cx="1599.682" cy="1387.864" rx="34.903" ry="52.529"/>
						</g>
					</g>
				</g>
			</g>
			<g>
				<g>
					<g>
						<g>
							
								<ellipse transform="matrix(0.9829 -0.1842 0.1842 0.9829 -233.2042 237.7447)" style="fill:#000072;" cx="1163.365" cy="1374.395" rx="29.909" ry="45.013"/>
						</g>
					</g>
				</g>
			</g>
			<g>
				<g>
					<g>
						<g>
							<path style="fill:#000072;" d="M2141.969,757.748c-0.176-0.002-0.991,0.579-1.567,0.964l-1.938,1.379
								c-1.311,0.974-2.651,1.968-3.979,3.039c-2.671,2.09-5.325,4.346-7.954,6.65c-5.259,4.624-10.386,9.568-15.4,14.692
								c-4.954,5.181-9.854,10.503-14.517,16.074c-4.717,5.535-9.204,11.299-13.635,17.158l-0.149,0.198
								c-3.577,4.729-10.31,5.664-15.042,2.087c-3.972-3.005-5.261-8.242-3.455-12.644c2.947-7.173,6.016-14.351,9.409-21.411
								c3.34-7.095,7.014-14.063,10.857-21.003c3.918-6.899,8.062-13.733,12.576-20.459c2.263-3.367,4.59-6.709,7.095-10.032
								c1.226-1.667,2.534-3.323,3.867-5l2.09-2.537c0.781-0.903,1.333-1.602,2.559-2.844l10.723-10.881
								c10.151-10.3,26.733-10.422,37.034-0.271c10.303,10.151,10.422,26.731,0.271,37.034
								C2155.66,755.17,2148.77,757.775,2141.969,757.748z"/>
						</g>
					</g>
				</g>
			</g>
			<g>
				<g>
					<g>
						<g>
							<path style="fill:#000072;" d="M1830.543,734.968l33.718,48.513c2.693,3.875,1.736,9.197-2.139,11.89
								c-2.708,1.88-6.13,1.973-8.86,0.539l-52.256-27.563c-11.204-5.911-15.496-19.785-9.585-30.989
								c5.911-11.204,19.785-15.496,30.989-9.585C1825.743,729.531,1828.521,732.082,1830.543,734.968z"/>
						</g>
					</g>
				</g>
			</g>
			<g>
				<g>
					<g>
						<g>
							<g>
								<path style="fill:#FFFFFF;" d="M1599.108,2219.188v332.493c0,28.191-22.841,51.032-51.032,51.032h-109.253
									c-28.19,0-51.032-22.841-51.032-51.032v-5.683h85.074c28.191,0,51.032-22.841,51.032-51.032v-219.063
									c0-28.19-22.841-51.032-51.032-51.032h-85.074v-5.683c0-28.191,22.842-51.034,51.032-51.034h109.253
									C1576.266,2168.155,1599.108,2190.997,1599.108,2219.188z"/>
							</g>
						</g>
					</g>
				</g>
				<g>
					<g>
						<g>
							<g>
								<path style="fill:#000072;" d="M1548.076,2624.998h-109.253c-40.427,0-73.318-32.888-73.318-73.315v-5.684
									c0-12.307,9.978-22.285,22.285-22.285h85.073c15.852,0,28.748-12.896,28.748-28.748v-219.063
									c0-15.852-12.896-28.748-28.748-28.748h-85.073c-12.307,0-22.285-9.978-22.285-22.285v-5.684
									c0-40.427,32.891-73.318,73.318-73.318h109.253c40.427,0,73.318,32.891,73.318,73.318v332.495
									C1621.394,2592.11,1588.503,2624.998,1548.076,2624.998z M1415.366,2568.284c5.215,7.344,13.784,12.144,23.457,12.144
									h109.253c15.852,0,28.748-12.896,28.748-28.745v-332.495c0-15.852-12.896-28.748-28.748-28.748h-109.253
									c-9.673,0-18.245,4.802-23.457,12.146h57.498c40.427,0,73.318,32.891,73.318,73.318v219.063
									c0,40.427-32.891,73.318-73.318,73.318H1415.366z"/>
							</g>
						</g>
					</g>
				</g>
				<g>
					<g>
						<g>
							<g>
								<path style="fill:#FFFFFF;" d="M1179.793,2057.318c-140.353,0-254.132,36.419-254.132,81.343v523.935
									c0,44.925,113.779,81.344,254.132,81.344c140.354,0,254.132-36.419,254.132-81.344V2138.66
									C1433.926,2093.737,1320.147,2057.318,1179.793,2057.318z"/>
							</g>
						</g>
					</g>
				</g>
				<g style="opacity:0.2;">
					<g>
						<g>
							<g>
								<path style="fill:#000072;" d="M914.975,2110.809v538.944c0,48.246,118.584,87.292,264.819,87.292
									c146.29,0,264.819-39.046,264.819-87.292v-57.5c-117.894,73.517-403.375,38.425-432.137-76.547
									c-40.348-161.287,48.164-232.181,134.209-246.093c99.647-16.111,132.956-77.932,35.944-77.932
									C1023.984,2191.683,949.581,2148.144,914.975,2110.809z"/>
							</g>
						</g>
					</g>
				</g>
				<g>
					<g>
						<g>
							<g>
								<path style="fill:#2AC644;" d="M2336.888,2472.573c-68.025,164.743-290.097,239.955-515.734,200.566
									c-225.637-39.388-415.451-168.308-393.945-322.353c2.339-17.104,6.518-31.979,12.089-44.961
									c5.962-13.984,13.483-25.796,22.062-35.767c55.769-64.516,155.662-51.757,155.662-51.757s-15.154-43.902-9.025-77.553
									c2.618-14.206,8.97-26.574,21.783-33.037c3.566-1.838,7.689-3.176,12.313-4.011
									c60.894-10.752,100.283,132.485,146.803,161.121c46.577,28.693,225.637,25.071,225.637,25.071
									c127.526-209.87,230.652-236.445,275.388-236.222h0.056c15.544,0.112,24.068,3.455,24.068,3.455l16.602,302.186
									L2336.888,2472.573z"/>
							</g>
						</g>
					</g>
				</g>
				<g style="opacity:0.6;">
					<g>
						<g>
							<g>
								<path style="fill:#FFFFFF;" d="M2064.118,2297.635l34.319,14.986c0,0-271.737,35.154-331.857-11.368
									c-78.164-60.485-105.655-136.548-136.799-193.543c3.566-1.838,7.689-3.176,12.313-4.011
									c60.894-10.752,100.283,132.485,146.803,161.121c46.577,28.693,225.637,25.071,225.637,25.071
									c127.526-209.87,230.652-236.445,275.388-236.222C2199.667,2089.603,2064.118,2297.635,2064.118,2297.635z"/>
							</g>
						</g>
					</g>
				</g>
				<g>
					<g>
						<g>
							<g>
								<path style="fill:#000072;" d="M1179.792,2766.224c-133.13,0-276.416-32.427-276.416-103.628V2138.66
									c0-71.199,143.286-103.628,276.416-103.628c133.132,0,276.418,32.429,276.418,103.628v523.936
									C1456.211,2733.797,1312.925,2766.224,1179.792,2766.224z M1179.792,2079.603c-152.966,0-231.846,41.396-231.846,59.058
									v523.936c0,17.661,78.879,59.058,231.846,59.058s231.848-41.396,231.848-59.058V2138.66
									C1411.64,2120.999,1332.759,2079.603,1179.792,2079.603z"/>
							</g>
						</g>
					</g>
				</g>
				<g>
					<g>
						<g>
							<g>
								<ellipse style="fill:#A16F47;" cx="1179.794" cy="2149.305" rx="184.967" ry="46.036"/>
							</g>
						</g>
					</g>
				</g>
				<g>
					<g>
						<g>
							<g>
								<ellipse style="fill:#000072;" cx="1179.794" cy="2149.305" rx="184.967" ry="46.036"/>
							</g>
						</g>
					</g>
				</g>
				<g>
					<g>
						<g>
							<g>
								
									<ellipse transform="matrix(0.7071 -0.7071 0.7071 0.7071 -1381.0189 1559.7173)" style="fill:#BD6B3E;" cx="1192.236" cy="2446.896" rx="103.581" ry="95.361"/>
							</g>
						</g>
					</g>
				</g>
				<g>
					<g>
						<g>
							<g>
								<path style="fill:#000072;" d="M1183.984,2563.885c-28.525,0-56.375-10.381-77.366-31.37
									c-44.004-44.006-41.396-118.213,5.813-165.425c22.678-22.676,52.222-35.872,83.193-37.151
									c31.494-1.304,60.718,9.827,82.229,31.34c44.004,44.004,41.396,118.21-5.813,165.422
									C1247.348,2551.392,1215.263,2563.885,1183.984,2563.885z M1200.522,2364.837c-1.147,0-2.295,0.024-3.452,0.073
									c-22.17,0.916-43.44,10.479-59.888,26.929c-33.564,33.564-36.172,85.569-5.813,115.925
									c30.354,30.361,82.358,27.749,115.92-5.813c33.564-33.562,36.172-85.566,5.813-115.923
									C1239.37,2372.293,1220.805,2364.837,1200.522,2364.837z"/>
							</g>
						</g>
					</g>
				</g>
				<g>
					<g>
						<g>
							<g>
								<path style="fill:#000072;" d="M1126.301,2544.183c-8.096,0-15.352-5.63-17.085-13.865
									c-0.403-1.917-9.582-47.271,15.696-79.27c14.756-18.682,37.254-28.545,66.868-29.319
									c23.127-0.603,39.392-6.294,48.342-16.914c10.283-12.202,8.091-28.291,8.069-28.452c-1.377-9.492,5.127-18.42,14.602-19.9
									c9.465-1.489,18.362,4.844,19.946,14.299c0.532,3.181,4.624,31.772-15.381,56.04
									c-15.632,18.965-40.752,29.028-74.666,29.917c-18.672,0.486-32.205,5.84-40.227,15.911
									c-15.142,19.009-9.05,50.232-8.987,50.544c1.909,9.446-4.172,18.694-13.611,20.642
									C1128.672,2544.063,1127.478,2544.183,1126.301,2544.183z"/>
							</g>
						</g>
					</g>
				</g>
				<g>
					<g>
						<g>
							<g>
								<path style="fill:#000072;" d="M2311.759,2062.909l-2.48-0.232l-2.754-0.217c-1.934-0.012-3.848,0.024-5.723-0.039
									c-3.867,0.256-7.668,0.33-11.489,0.964c-3.838,0.725-7.603,0.95-11.36,2.029c-3.752,1.045-7.473,1.963-11.165,2.893
									c-7.305,2.837-14.578,4.954-21.533,8.608l-10.461,4.932c-3.362,2.026-6.68,4.099-10.054,6.021
									c-26.68,16.072-50.786,36.731-73.245,59.346c-5.691,5.544-10.728,11.924-16.179,17.761l-8.093,8.875l-4.048,4.431
									l-3.767,4.746c-5.029,6.326-9.956,12.722-15.076,18.955l-7.627,9.395c-2.556,3.115-4.761,6.57-7.161,9.839
									c-9.287,13.357-19.38,26.033-28.369,39.678c-8.984,13.647-18.11,27.205-27.571,40.591l-1.379,1.956
									c-4.07,5.757-10.669,8.806-17.222,8.755h-0.039c-25.193,0.356-49.785,0.032-74.732-0.842
									c-24.883-0.916-49.807-2.4-74.983-5.19c-12.595-1.416-25.249-3.157-38.115-5.645c-12.94-2.651-25.794-5.381-40.105-11.653
									c-3.467-1.448-7.451-3.618-11.074-5.911c-1.802-1.24-3.691-2.502-5.374-3.799l-4.695-3.955
									c-5.808-5.337-10.705-10.818-14.988-16.27c-8.618-10.923-15.481-21.831-22.136-32.622
									c-13.142-21.536-24.773-42.842-37.637-61.992c-6.396-9.5-13.098-18.547-20.12-25.632
									c-6.929-7.219-14.333-12.063-19.36-12.876c-4.202-1.345-11.953,0.999-14.805,3.879c-1.699,1.528-3.257,3.718-4.597,6.963
									c-1.328,3.213-2.317,7.341-2.859,11.909c-2.122,18.452,2.363,42.502,8.689,62.456c4.224,11.338-1.545,23.953-12.883,28.174
									c-2.983,1.111-6.055,1.531-9.038,1.338l-1.968-0.139l-4.275-0.295l-4.858-0.2c-3.291-0.071-6.606-0.085-9.934-0.01
									c-6.655,0.139-13.328,0.574-19.922,1.348c-13.218,1.428-26.111,4.265-38.357,8.149
									c-24.417,7.954-45.813,21.375-60.168,40.527c-7.266,9.5-12.935,20.286-17.112,31.953
									c-4.253,11.543-6.66,24.507-7.971,37.068c-1.416,12.51-0.85,25.073,1.186,37.417c1.98,12.349,5.383,24.565,10.483,36.313
									c4.978,11.765,11.099,23.254,18.66,34.058l2.732,4.102l3.008,3.96c2.031,2.627,3.958,5.315,6.055,7.9
									c4.38,5.063,8.535,10.278,13.308,15.083c18.396,19.724,40.068,36.968,63.027,52.544
									c46.118,31.096,98.398,54.226,152.319,71.624c54.031,17.241,110.264,29.321,166.519,33.85
									c28.188,2.271,56.509,2.722,84.678,1.23c28.171-1.406,56.216-4.714,83.77-10.164c27.571-5.378,54.558-13.193,80.537-23.235
									c25.979-10.032,50.925-22.48,73.816-37.744c22.998-15.176,43.787-32.944,63.135-52.266
									c19.658-19.224,36.357-41.04,53.503-64.573l0.227-0.315c3.076-4.219,8.992-5.149,13.21-2.073
									c3.069,2.234,4.392,5.977,3.708,9.47c-2.996,15.2-7.72,30.276-14.514,44.399c-1.543,3.63-3.335,7.122-5.264,10.535
									l-5.759,10.315c-2.09,3.325-4.268,6.599-6.455,9.88l-3.284,4.932l-3.579,4.69l-7.253,9.355l-7.844,8.835
									c-2.571,3.003-5.317,5.825-8.162,8.535l-8.469,8.235c-11.768,10.403-24.041,20.269-37.051,28.918
									c-25.781,17.727-53.542,32.061-82.205,43.623c-28.667,11.572-58.237,20.569-88.267,26.899
									c-60.051,12.844-121.638,16.216-182.439,11.719c-30.361-2.202-60.774-6.489-90.41-12.415
									c-29.722-5.93-59.189-13.345-88.145-22.61c-28.948-9.275-57.434-20.225-85.188-33.093
									c-27.742-12.876-54.802-27.622-80.476-45.027c-25.693-17.319-50.115-37.166-71.724-60.564
									c-5.527-5.688-10.547-11.975-15.701-18.091c-2.505-3.135-4.863-6.426-7.29-9.636l-3.606-4.856l-3.359-5.083
									c-9.163-13.367-16.924-27.976-23.254-43.301c-6.436-15.276-11.021-31.604-13.333-48.308
									c-2.446-16.663-2.844-33.76-0.718-50.432c2.036-16.572,5.356-32.686,11.46-48.687c5.982-15.894,14.353-31.306,25.208-44.956
									c10.825-13.65,24.004-25.513,38.528-34.639c14.495-9.209,30.081-15.996,45.891-20.867
									c15.854-4.709,31.953-7.546,47.993-8.85c8.025-0.691,16.045-0.979,24.084-0.906c4.019,0.029,8.049,0.164,12.102,0.376
									l6.143,0.437c2.143,0.176,3.965,0.359,6.699,0.701l-23.889,29.368l-0.002-0.005c-1.279-3.823-2.134-6.75-3.062-10.083
									c-0.899-3.237-1.736-6.47-2.503-9.727c-1.538-6.511-2.844-13.096-3.867-19.819c-1.975-13.462-3.137-27.39-1.382-42.583
									c0.915-7.581,2.583-15.525,5.908-23.65c3.286-8.066,8.525-16.423,15.955-23.083c7.373-6.716,16.526-11.189,25.234-13.489
									c2.195-0.513,4.289-1.072,6.589-1.455c2.422-0.303,4.858-0.549,7.29-0.74c4.868-0.068,9.9,0.134,14.551,1.248
									c9.392,1.968,17.832,5.898,24.507,10.483c6.792,4.563,12.656,9.607,17.634,14.802c10.195,10.381,18.015,21.218,25.317,32
									c14.441,21.565,26.272,43.352,38.679,63.618c6.182,10.061,12.466,19.893,19.048,28.198
									c3.271,4.194,6.636,7.805,9.824,10.776c3.325,3.005,5.408,4.231,9.59,6.152c8.125,3.677,19.358,6.411,30.386,8.577
									c11.189,2.168,22.825,3.787,34.57,5.105c47.07,5.054,96.006,6.255,143.872,5.762l0.032-0.002l-18.599,10.71
									c8.616-14.7,17.568-29.231,26.663-43.672c4.314-7.356,9.592-14.165,14.583-21.135c5.042-6.938,10.032-13.921,15.181-20.779
									c2.612-3.408,4.995-6.958,7.798-10.249l8.354-9.9c5.532-6.628,11.26-13.093,16.882-19.631l4.25-4.878l4.597-4.631
									l9.197-9.253l9.28-9.153c3.154-2.998,6.055-6.191,9.529-8.926l20.11-16.914l5.027-4.207l5.452-3.787l10.928-7.502
									l10.913-7.451c3.887-2.197,7.778-4.38,11.714-6.47l11.741-6.304c3.938-2.043,8.24-3.582,12.329-5.376
									c4.124-1.76,8.301-3.369,12.434-5.022l13.035-3.76c8.474-2.896,17.754-3.701,26.558-5.222
									c4.563-0.31,9.124-0.496,13.638-0.63c4.5-0.215,9.143,0.452,13.633,0.666c4.517,0.403,9.06,1.46,13.499,2.346
									c2.244,0.61,4.451,1.323,6.638,1.985l3.323,1.292l1.643,0.662l1.88,0.874c3.086,1.438,4.421,5.105,2.986,8.191
									c-1.13,2.424-3.633,3.77-6.152,3.54L2311.759,2062.909z"/>
							</g>
						</g>
					</g>
				</g>
				<g>
					<g>
						<g>
							<g>
								<path style="fill:#000072;" d="M2016.109,2267.68c9.714,1.807,17.996,3.928,26.768,6.313
									c8.633,2.371,17.151,5.044,25.574,7.952c8.428,2.883,16.743,6.101,24.929,9.604c8.203,3.418,16.213,7.412,24.082,11.509
									c5.056,2.629,7.021,8.86,4.39,13.916c-2.244,4.316-7.114,6.379-11.636,5.254l-0.383-0.098
									c-7.996-1.987-15.959-3.848-24.092-5.154c-8.093-1.384-16.23-2.488-24.404-3.262c-8.162-0.798-16.34-1.367-24.5-1.633
									c-8.015-0.266-16.604-0.344-23.828,0.061c-12.388,0.696-22.991-8.782-23.687-21.167s8.782-22.991,21.167-23.687
									c1.797-0.1,3.557,0.012,5.254,0.317L2016.109,2267.68z"/>
							</g>
						</g>
					</g>
				</g>
				<g>
					<g>
						<g>
							<g>
								<path style="fill:#2AC644;" d="M915.027,2178.884c0,0-138.486,35.815-138.486,214.892
									c0,179.077,57.866,278.416,237.856,219.196c0,0-11.025-56.833-87.432-95.036c0,0,74.58-23.877,87.432-54.917
									c12.852-31.04-92.207-76.406-92.207-76.406s82.332-13.707,98.47-61.77C1036.799,2276.779,926.965,2281.555,915.027,2178.884
									z"/>
							</g>
						</g>
					</g>
				</g>
				<g>
					<g>
						<g>
							<g>
								<path style="fill:#000072;" d="M921.679,2652.542c-35.425,0-65.259-8.975-90.095-26.948
									c-52.034-37.659-77.329-113.489-77.329-231.819c0-194.084,153.64-236.064,155.193-236.465
									c6.226-1.616,12.864-0.449,18.179,3.193c5.315,3.645,8.792,9.409,9.536,15.808c5.469,47.029,34.602,65.513,62.776,83.386
									c22.998,14.592,54.495,34.575,41.848,72.236c-9.795,29.17-35.815,47.83-60.82,59.441
									c35.732,21.443,66.57,49.858,54.021,80.168c-8.989,21.709-35.388,38.945-59.294,50.681
									c50.864,39.517,60.139,84.229,60.581,86.504c2.136,11.016-4.253,21.904-14.912,25.41
									C984.096,2646.4,950.976,2652.537,921.679,2652.542z M898.723,2209.317c-35.183,17.729-99.898,66.396-99.898,184.458
									c0,103.015,19.263,167.034,58.892,195.713c28.716,20.779,71.382,23.813,127.039,9.07
									c-9.177-16.55-28.484-41.052-67.756-60.691c-8.105-4.053-12.949-12.61-12.253-21.643c0.696-9.036,6.794-16.75,15.425-19.512
									c28.674-9.221,63.613-27.129,72.246-39.717c-7.051-11.458-43.013-34.326-79.07-49.927
									c-9.067-3.923-14.473-13.352-13.274-23.159c1.199-9.81,8.711-17.656,18.457-19.28c17.93-3.047,71.377-18.213,81.006-46.882
									c0.491-1.465,0.454-2.09,0.454-2.097c-1.248-3.926-15.444-12.935-23.928-18.315
									C950.547,2281.146,913.93,2257.918,898.723,2209.317z"/>
							</g>
						</g>
					</g>
				</g>
			</g>
			<g>
				<g>
					<g>
						<g>
							<g>
								<path style="fill:#2AC644;" d="M2571.494,2780.609l-10.417,236.279l-5.683,129.03
									c-24.236,44.961-81.007,58.219-149.087,103.013c-39.946,26.296-82.678,48.916-122.568,63.346
									c-42.119,15.264-81.063,21.504-110.2,13.482c-23.176-6.352-41.005-15.656-53.541-33.707
									c-12.535-18.051-19.666-44.905-21.393-86.466c-4.29-102.79,19.723-230.65,61.005-312.159
									c0.779-1.616,9.973-18.107,27.41-39.89C2239.78,2787.796,2368.309,2674.308,2571.494,2780.609z"/>
							</g>
						</g>
					</g>
				</g>
				<g>
					<g>
						<g>
							<g>
								<path style="fill:#000072;" d="M2567.816,2787.599c-36.318-13.94-73.186-24.607-110.144-28.708
									c-2.302-0.281-4.587-0.696-6.895-0.869l-6.919-0.415c-4.607-0.22-9.192-0.706-13.779-0.725
									c-9.177,0.127-18.301,0.068-27.344,0.947c-18.096,1.309-35.884,4.653-53.032,9.929
									c-17.185,5.139-33.748,12.217-49.487,20.92c-15.813,8.564-30.793,18.848-44.768,30.474
									c-13.979,11.626-26.963,24.59-38.879,38.477c-5.991,6.914-11.628,14.141-16.995,21.506
									c-5.396,7.302-10.542,14.934-14.951,22.358l-1.541,2.656l-0.439,0.791l-0.645,1.335l-2.981,6.262
									c-2.039,4.141-3.928,8.381-5.747,12.668c-1.88,4.248-3.716,8.523-5.386,12.893c-1.709,4.348-3.503,8.65-5.039,13.088
									c-6.526,17.556-12.063,35.579-16.978,53.789c-9.788,36.433-16.426,73.872-19.714,111.292
									c-1.636,18.704-2.363,37.427-1.87,55.923c0.508,18.477,2.017,36.797,5.479,54.236c3.523,17.312,8.591,34.131,16.501,47.593
									c3.909,6.785,8.608,12.317,13.523,17.178c5.176,4.39,10.823,7.632,17.095,9.907l1.587,0.576
									c11.555,4.192,17.522,16.953,13.333,28.508c-3.972,10.95-15.73,16.858-26.777,13.879
									c-12.583-3.433-24.526-9.441-34.731-17.361c-9.812-8.157-18.062-17.625-24.404-27.649
									c-12.805-20.061-19.751-41.338-24.592-62.302c-9.373-42.065-9.739-83.721-6.899-124.648
									c2.905-40.969,10.398-81.204,20.779-120.732c5.166-19.783,11.597-39.26,18.916-58.491c1.738-4.832,3.767-9.587,5.706-14.363
									c1.899-4.79,3.984-9.526,6.13-14.243c2.075-4.739,4.238-9.448,6.587-14.106l3.433-7.009l0.991-1.965l1.353-2.432l2.19-3.699
									c11.404-18.616,24.08-35.063,38.208-50.735c14.055-15.61,29.338-30.159,45.908-43.281
									c16.56-13.118,34.424-24.788,53.413-34.495c19.05-9.585,39.233-17.058,59.961-22.261c20.713-5.388,42.185-7.3,63.318-7.385
									c10.608-0.325,21.121,0.898,31.577,1.87c5.217,0.576,10.361,1.628,15.525,2.429l7.722,1.296
									c2.563,0.466,5.073,1.177,7.607,1.755c40.488,9.741,78.13,26.846,111.44,49.302c3.647,2.461,4.612,7.415,2.151,11.062
									c-2.114,3.137-6.072,4.29-9.458,2.988L2567.816,2787.599z"/>
							</g>
						</g>
					</g>
				</g>
				<g>
					<g>
						<g>
							<g>
								<path style="fill:#94C433;" d="M2039.629,2938.169c0,0-12.535-155.797,59.095-170.123s109.237,150.425,109.237,150.425
									s55.833-120.898,118.191-105.655c80.585,19.698,69.84,521.495-128.935,552.643
									c-198.775,31.148-273.59-185.535-298.859-260.748c-25.27-75.212-55.713-239.963,0-266.824
									c58.549-28.229,139.481,109.237,139.481,109.237"/>
							</g>
						</g>
					</g>
				</g>
				<g>
					<g>
						<g>
							<g>
								<path style="fill:#2AC644;" d="M2373.157,2988.529c-0.725,111.816-27.577,249.092-89.419,323.748
									c-0.502,0.668-1.058,1.281-1.616,1.949v0.056c-23.288,27.356-51.423,45.963-84.906,51.2
									c-3.788,0.614-7.522,1.115-11.198,1.504c-2.284,0.279-4.569,0.502-6.853,0.669c-1.002,0.112-1.95,0.166-2.953,0.223
									c-2.006,0.166-3.955,0.223-5.906,0.333h-0.056c-1.504,0.056-2.952,0.112-4.456,0.167c-2.118,0.056-4.236,0.112-6.296,0.112
									c-26.854,0.056-51.144-4.736-73.094-13.036c-4.513-1.727-8.915-3.622-13.26-5.628c-0.223-0.054-0.391-0.166-0.614-0.278
									c-2.897-1.337-5.793-2.785-8.634-4.29c-16.602-8.747-31.7-19.555-45.407-31.758c-1.838-1.615-3.621-3.286-5.404-4.958
									c-66.688-62.956-99.614-158.781-114.712-203.854c-20.057-59.612-43.345-175.55-24.347-234.383
									c4.959-15.377,12.814-26.854,24.347-32.425c58.553-28.247,139.448,109.253,139.448,109.253l1.783-8.97
									c0,0-12.535-155.773,59.112-170.091c40.558-8.134,70.253,41.173,88.304,85.464c13.872,33.984,20.948,64.961,20.948,64.961
									s55.824-120.952,118.167-105.687C2356.387,2820.221,2373.769,2895.601,2373.157,2988.529z"/>
							</g>
						</g>
					</g>
				</g>
				<g>
					<g>
						<g>
							<g>
								<path style="fill:#000072;" d="M2158.703,3390.838c-75.43,0.005-140.381-34.229-193.53-102.134
									c-49.949-63.818-75.608-140.19-87.942-176.895c-21.638-64.409-65.981-256.665,11.448-293.994
									c46.318-22.339,95.229,20.322,128.813,61.284c3.984-52.793,20.237-121.582,76.863-132.905
									c61.909-12.378,100.508,61.943,120.054,116.021c25.715-38.14,67.615-83.135,117.036-71.045
									c68.608,16.768,64.805,190.229,63.345,224.834c-6.68,158.374-61.528,350.693-194.124,371.47
									C2186.343,3389.72,2172.348,3390.838,2158.703,3390.838z M1915.537,2856.336c-2.7,0-5.21,0.522-7.5,1.626
									c-11.421,5.508-22.097,32.993-17.817,93.638c3.882,55.044,18.188,113.057,29.263,146.011
									c22.798,67.861,92.204,274.346,274.285,245.83c93.354-14.629,140.417-156.87,153.333-285.107
									c13.711-136.157-12.231-218.652-26.316-223.892c-33.418-8.149-76.831,59.39-92.598,93.389
									c-4.014,8.643-13.086,13.799-22.554,12.793c-9.478-0.996-17.275-7.905-19.397-17.192
									c-13.279-57.891-48.879-140.361-83.14-133.535c-39.307,7.861-44.766,102.095-41.252,146.499
									c0.295,3.721-0.342,7.3-1.716,10.513c0.068,7.7-3.865,15.229-10.981,19.419c-10.603,6.255-24.26,2.71-30.51-7.896
									C1991.623,2912.65,1943.557,2856.336,1915.537,2856.336z"/>
							</g>
						</g>
					</g>
				</g>
			</g>
		</g>
		<g style="opacity:0.2;">
			<g>
				<g>
					<g>
						<path style="fill:#000072;" d="M2597.066,1854.886c0,0-0.056,0.056-0.223,0.167c-2.284,1.893-21.394,17.772-54.988,40.336
							c-104.629,70.253-349.376,205.635-660.642,186.971c-157.723-9.471-308.036-33.205-435.507-60.503
							c45.183-36.994,102.065-70.588,171.261-88.305c0,0-134.268-71.256-220.232-100.06
							c-85.965-28.859-188.031-55.713-188.031-152.43c0,0-114.045,15.488-183.852-156.385
							c-31.311-77.107-22.452-162.737,19.221-231.264c-49.251,141.009,25.85,229.369,135.215,244.523
							c155.104,21.505,152.987-49.083,341.352,48.08c193.714,99.948,252.434-6.241,331.881-33.316
							c-8.023,14.151-13.092,34.932-13.092,58.052c0,42.899,17.327,77.608,38.776,77.608c21.45,0,38.776-34.71,38.776-77.608
							c0-25.906-6.351-48.86-16.1-62.9c14.207,1.95,29.64,7.131,46.742,16.38c82.567,44.682,151.762,28.024,209.313-17.494
							c8.747,20.335,26.129,34.208,46.186,34.208c28.803,0,52.146-28.636,52.146-63.902c0-22.007-9.081-41.395-22.897-52.872
							c16.379-23.176,31.421-48.024,45.182-73.039c23.566-42.899,87.469-32.926,97.276,14.986
							c19.221,93.988,22.563,210.595-62.12,254.385c-56.159,29.026-114.602,43.288-171.596,51.589
							c4.736-7.855,7.522-17.27,7.522-27.299c0-27.689-20.892-50.141-46.576-50.141c-25.739,0-46.575,22.453-46.575,50.141
							c0,13.817,5.181,26.352,13.594,35.377c-69.641,6.073-134.657,8.747-187.863,25.516
							c-79.893,25.238-160.342,43.289-213.603,44.292c9.861-8.914,15.99-21.84,15.99-36.213c0-27.244-22.063-49.25-49.251-49.25
							c-27.188,0-49.25,22.006-49.25,49.25c0,27.188,22.062,49.194,49.25,49.194c3.12,0,6.24-0.279,9.193-0.891
							c51.924,34.319,185.189,97.497,443.92,77.775c349.987-26.742,716.744-141.455,689.278-604.93
							c16.714,54.543,29.082,118.167,32.87,191.262C2821.366,1692.761,2676.847,1808.532,2597.066,1854.886z"/>
					</g>
				</g>
			</g>
		</g>
		<g>
			<g style="opacity:0.6;">
				<g>
					<g>
						<g>
							<path style="fill:#FFFFFF;" d="M1234.452,1617.574c2.58-101.059-92.372-91.557-140.355-135.198
								c-48.053-43.64-61.083-95.968-8.755-126.509c0,0-74.182,23.958-72.009,109.067c2.171,85.042,65.494,63.255,47.983,126.51
								c-17.441,63.255-130.854,5.837-146.125,122.913c-15.271,117.076,17.443,184.675,98.142,230.488
								c80.765,45.812,122.708,140.898,93.252,218.881c0,0,67.804-48.731,37.464-140.356
								c-30.338-91.625,52.533-82.87,48.188-157.052c-4.345-74.182-99.363-58.911-85.653-130.922
								C1120.228,1663.454,1231.263,1741.369,1234.452,1617.574z M1063.556,1867.065c-17.511,18.868-49.478-17.442-62.576-62.576
								c-13.099-45.066-17.443-82.87,13.099-90.132c36.039-8.62,29.116,36.31,27.624,66.852
								C1040.275,1811.75,1080.997,1848.13,1063.556,1867.065z"/>
						</g>
					</g>
				</g>
			</g>
			<g style="opacity:0.6;">
				<g>
					<g>
						<g>
							<path style="fill:#FFFFFF;" d="M1279.499,1451.825c0,0-21.815,30.542,13.089,95.988c34.905,65.446,26.178,104.714,0,141.8
								c-26.179,37.086-61.083,76.354-39.268,124.348c0,0,13.089-69.809,71.991-85.08c58.902-15.271,68.04-41.762,78.536-95.988
								c8.726-45.085-24.724-94.533-78.693-115.622C1277.369,1498.599,1279.499,1451.825,1279.499,1451.825z"/>
						</g>
					</g>
				</g>
			</g>
		</g>
		<g style="opacity:0.2;">
			<g>
				<g>
					<g>
						<path style="fill:#000072;" d="M2336.888,2472.573c-68.025,164.743-290.097,239.955-515.734,200.566
							c-225.637-39.388-415.451-168.308-393.945-322.353c4.902-35.378,17.605-61.507,34.151-80.728
							c17.216,75.824,134.658,215.927,329.096,256.654c182.797,38.331,326.904-15.463,457.547-99.381
							C2285.265,2403.395,2334.452,2428.352,2336.888,2472.573L2336.888,2472.573z"/>
					</g>
				</g>
			</g>
		</g>
		<g style="opacity:0.2;">
			<g>
				<g>
					<g>
						<path style="fill:#000072;" d="M2561.076,3016.887l-5.683,129.03c-24.236,44.961-81.007,58.219-149.087,103.013
							c-39.946,26.296-82.678,48.916-122.568,63.346c-0.502,0.668-1.058,1.281-1.616,1.949v0.056
							c-23.288,27.356-51.423,45.963-84.906,51.2c-3.788,0.614-7.522,1.115-11.198,1.504c-2.284,0.279-4.569,0.502-6.853,0.669
							c-1.002,0.112-1.95,0.166-2.953,0.223c-2.006,0.166-3.955,0.223-5.906,0.333h-0.056c-1.504,0.056-2.952,0.112-4.456,0.167
							c-2.118,0.056-4.236,0.112-6.296,0.112c-26.854,0.056-51.144-4.736-73.094-13.036c-4.513-1.727-8.915-3.622-13.26-5.628
							c-0.223-0.054-0.391-0.166-0.614-0.278c-2.897-1.337-5.793-2.785-8.634-4.29c-16.602-8.747-31.7-19.555-45.407-31.758
							c-1.838-1.615-3.621-3.286-5.404-4.958c-66.688-62.956-99.614-158.781-114.712-203.854
							c-20.057-59.612-43.345-175.55-24.347-234.383c28.191,108.807,94.991,298.23,224.578,335.279
							c0.891,0.279,1.782,0.558,2.674,0.779c11.421,3.064,23.344,4.959,35.767,5.517c210.929,9.248,189.87-385.588,189.145-398.737
							c0.948,6.295,16.993,108.25,46.967,175.384c14.987,33.539,33.372,58.443,55.044,58.443
							C2494.833,3046.972,2469.706,3005.856,2561.076,3016.887z"/>
					</g>
				</g>
			</g>
		</g>
		<g>
			<g>
				<g>
					<g>
						<g>
							<path style="fill:#FFFFFF;" d="M1190.586,874.41c22.451-36.733,33.521-80.828,28.785-126.959
								c-11.496-111.969-111.584-193.417-223.553-181.921S802.4,677.115,813.896,789.083
								c11.496,111.969,111.584,193.417,223.553,181.921c31.144-3.198,59.915-13.267,84.993-28.522l94.314,21.151L1190.586,874.41z"
								/>
						</g>
					</g>
				</g>
			</g>
			<g style="opacity:0.5;">
				<g>
					<g>
						<g>
							<g>
								<path style="fill:#FFFFFF;" d="M999.821,604.523c104.594-10.739,198.797,59.637,220.127,160.222
									c0.025-7.185-0.284-14.434-1.035-21.742c-11.496-111.969-111.584-193.417-223.553-181.921
									C883.392,572.578,801.943,672.666,813.44,784.635c0.754,7.34,1.909,14.54,3.403,21.6
									C817.236,703.37,895.193,615.265,999.821,604.523z"/>
							</g>
						</g>
					</g>
				</g>
			</g>
			<g>
				<g>
					<g>
						<g>
							<path style="fill:#000072;" d="M1016.218,990.02c-50.779,0.003-99.614-17.285-139.536-49.773
								c-45.938-37.383-74.568-90.418-80.618-149.333c-6.05-58.916,11.206-116.66,48.589-162.598
								c37.383-45.938,90.417-74.568,149.333-80.618c58.899-6.065,116.66,11.206,162.598,48.589
								c45.938,37.383,74.568,90.417,80.618,149.333c4.722,45.984-4.685,91.16-27.234,131.177l23.989,81.789
								c1.785,6.091,0.217,12.673-4.124,17.305c-4.343,4.629-10.806,6.614-17.002,5.234l-87.424-19.607
								c-26.555,14.988-55.496,24.172-86.128,27.317C1031.567,989.63,1023.867,990.02,1016.218,990.02z M1016.775,582.381
								c-6.328,0-12.698,0.322-19.126,0.981c-49.39,5.071-93.848,29.072-125.188,67.583
								c-31.338,38.508-45.803,86.917-40.732,136.306c5.071,49.39,29.072,93.85,67.583,125.188
								c38.508,31.34,86.931,45.813,136.306,40.732c27.749-2.849,53.826-11.599,77.507-26.006c3.962-2.414,8.708-3.193,13.24-2.178
								l64.626,14.495l-17.607-60.027c-1.423-4.854-0.73-10.081,1.907-14.394c21.36-34.949,30.435-74.983,26.248-115.779
								C1191.728,653.753,1110.801,582.381,1016.775,582.381z"/>
						</g>
					</g>
				</g>
			</g>
			<g style="opacity:0.3;">
				<g>
					<g>
						<g>
							<path style="fill:#000072;" d="M1191.73,872.453c-55.822,47.216-132.725,67.893-209.093,48.886
								c-84.693-21.079-147.094-85.571-169.539-163.844c-0.536,10.378-0.296,20.928,0.799,31.587
								c11.496,111.969,111.584,193.417,223.553,181.921c31.144-3.198,59.914-13.267,84.993-28.522l94.314,21.152l-26.17-89.223
								C1190.98,873.766,1191.343,873.102,1191.73,872.453z"/>
						</g>
					</g>
				</g>
			</g>
			<g>
				<g>
					<g>
						<g>
							<path style="fill:#FF0068;" d="M1081.802,711.038L1081.802,711.038c-17.638-17.638-46.233-14.477-63.871,3.16l-2.745,2.745
								l-2.745-2.745c-17.638-17.637-46.233-20.798-63.871-3.16l0,0c-17.637,17.637-17.637,46.233,0,63.871l2.745,2.745
								l55.452,55.452c4.65,4.65,12.189,4.65,16.838,0l55.452-55.452l2.745-2.745
								C1099.439,757.271,1099.439,728.676,1081.802,711.038z"/>
						</g>
					</g>
				</g>
			</g>
		</g>
	</g>
</g>
</svg>
